<?xml version="1.0" encoding="utf-8"?>
<!-- Generator: Adobe Illustrator 15.0.0, SVG Export Plug-In . SVG Version: 6.00 Build 0)  -->
<!DOCTYPE svg PUBLIC "-//W3C//DTD SVG 1.1//EN" "http://www.w3.org/Graphics/SVG/1.1/DTD/svg11.dtd">
<svg version="1.1" id="SvgjsSvg1015" xmlns:svgjs="http://svgjs.com/svgjs"
	 xmlns="http://www.w3.org/2000/svg" xmlns:xlink="http://www.w3.org/1999/xlink" x="0px" y="0px" width="75px" height="74px"
	 viewBox="0 0 75 74" enable-background="new 0 0 75 74" xml:space="preserve">
<g>
	<path fill="#315E9B" d="M20.092,0.25h34.819c10.678,0,19.339,8.659,19.339,19.342v34.819c0,10.678-8.659,19.339-19.342,19.339
		H20.09C9.408,73.749,0.75,65.09,0.75,54.408V19.592C0.75,8.912,9.409,0.25,20.092,0.25"/>
	<path fill="#FFFFFF" d="M55.323,73.75V54.342h6.559l0.98-7.566h-7.539v-4.83c0-2.188,0.611-3.683,3.772-3.683h4.033v-6.768
		c-0.698-0.092-3.092-0.298-5.875-0.298c-5.814,0-9.795,3.525-9.795,10.001v5.578h-6.573v7.563h6.573V73.75H55.323z"/>
	<path fill="#65B0E1" d="M20.092,0.25c-3.325,0-6.454,0.841-9.188,2.319v19.441c0,0.08,0.009,0.161,0.011,0.241H21.53
		c0.004-0.081,0.015-0.161,0.015-0.241V0.25H20.09H20.092z M32.181,0.25v21.761c0,0.08,0.009,0.161,0.011,0.241h10.617
		c0.002-0.081,0.011-0.161,0.011-0.241V0.25H32.181z"/>
	<path fill="#1D427B" d="M0.75,19.592v2.663h10.143c0.002-0.081,0.011-0.162,0.011-0.241V2.567
		C4.647,5.944,0.748,12.482,0.75,19.592 M21.544,0.25v21.761c0,0.08,0.006,0.161,0.011,0.241h10.612
		c0.004-0.081,0.013-0.161,0.013-0.241V0.25H21.544z M42.819,0.25v21.761c0,0.08,0.009,0.161,0.012,0.241h10.614
		c0.004-0.081,0.011-0.161,0.011-0.241V0.25H42.819z"/>
	<path fill="#50A1D8" d="M21.544,22.011c0,2.938-2.382,5.32-5.321,5.32c-2.937,0-5.319-2.382-5.319-5.32H21.544z M42.819,22.011
		c0,2.938-2.381,5.32-5.319,5.32c-2.938,0-5.319-2.382-5.319-5.32H42.819z M64.096,22.011c0,2.938-2.382,5.32-5.319,5.32
		c-2.938,0-5.32-2.382-5.32-5.32H64.096z"/>
	<path fill="#1E3B6E" d="M32.181,22.011c-0.062,2.938-2.492,5.269-5.429,5.208c-2.851-0.058-5.149-2.356-5.207-5.208H32.181z
		 M53.456,22.011c-0.061,2.938-2.491,5.269-5.428,5.208c-2.853-0.058-5.149-2.356-5.209-5.208H53.456z M0.75,24.216
		c1.213,2.673,4.364,3.856,7.037,2.643c1.901-0.864,3.121-2.76,3.118-4.848H0.75V24.216z M74.25,22.011H64.096
		c0.007,2.938,2.395,5.314,5.333,5.306c2.074-0.005,3.957-1.216,4.821-3.101V22.011z"/>
	<path fill="#1D427B" d="M64.096,2.569v19.441c0,0.08,0.01,0.161,0.012,0.241H74.25V19.59c0.003-7.109-3.896-13.648-10.154-17.025"
		/>
	<path fill="#65B0E1" d="M54.908,0.25h-1.452v21.761c0,0.08,0.011,0.161,0.015,0.241h10.612c0.004-0.081,0.013-0.161,0.013-0.241
		V2.567C61.274,1.042,58.116,0.246,54.908,0.25"/>
</g>
</svg>
