<?xml version="1.0" encoding="utf-8"?>
<!-- Generator: Adobe Illustrator 15.0.0, SVG Export Plug-In . SVG Version: 6.00 Build 0)  -->
<!DOCTYPE svg PUBLIC "-//W3C//DTD SVG 1.1//EN" "http://www.w3.org/Graphics/SVG/1.1/DTD/svg11.dtd">
<svg version="1.1" id="SvgjsSvg1015" xmlns:svgjs="http://svgjs.com/svgjs"
	 xmlns="http://www.w3.org/2000/svg" xmlns:xlink="http://www.w3.org/1999/xlink" x="0px" y="0px" width="75px" height="74px"
	 viewBox="0 0 75 74" enable-background="new 0 0 75 74" xml:space="preserve">

		<ellipse id="path-6" fill="#EAEAEA" cx="17.146" cy="25.483" rx="4.277" ry="4.277"/>
		<circle id="path-8" fill="#EAEAEA" cx="57.854" cy="25.483" r="4.277"/>
		<defs>
			<linearGradient id="Path-745-Copy-8_2_" gradientUnits="userSpaceOnUse" x1="-616.853" y1="152.3818" x2="-616.853" y2="152.6195" gradientTransform="matrix(277.5008 0 0 170.7865 171214.8281 -26008.3203)">
				<stop  offset="0" style="stop-color:#66D3FE;stop-opacity:0.9762"/>
				<stop  offset="1" style="stop-color:#0091FF"/>
			</linearGradient>
		</defs>
		
		<path id="Path-745-Copy-8_1_" fill="url(#Path-745-Copy-8_2_)" d="M15.823,27.655c0.005,0.061,0.013,0.163,0.025,0.308
			c0.022,0.231,0.051,0.499,0.087,0.798c0.104,0.846,0.252,1.783,0.452,2.793c0.57,2.886,1.446,5.774,2.696,8.485
			c1.628,3.536,3.778,6.506,6.531,8.708c3.285,2.628,7.294,4.047,12.032,4.047c4.739,0,8.749-1.419,12.032-4.047
			c2.754-2.202,4.904-5.172,6.533-8.708c1.248-2.711,2.125-5.6,2.695-8.485c0.201-1.01,0.348-1.947,0.451-2.793
			c0.037-0.299,0.063-0.566,0.088-0.798c0.012-0.145,0.021-0.247,0.025-0.308c0.059-0.895-0.617-1.666-1.513-1.728
			c-0.896-0.059-1.666,0.618-1.726,1.513c-0.004,0.031-0.01,0.106-0.02,0.223c-0.02,0.201-0.043,0.435-0.076,0.701
			c-0.096,0.77-0.229,1.631-0.414,2.56c-0.522,2.65-1.328,5.3-2.459,7.757c-1.434,3.106-3.293,5.674-5.613,7.531
			c-2.711,2.17-6.006,3.335-10.006,3.335c-3.998,0-7.293-1.165-10.006-3.335c-2.321-1.857-4.179-4.425-5.612-7.531
			c-1.131-2.457-1.935-5.105-2.459-7.757c-0.183-0.929-0.318-1.79-0.413-2.56c-0.034-0.267-0.058-0.5-0.077-0.701
			c-0.011-0.116-0.017-0.191-0.019-0.223c-0.059-0.895-0.833-1.571-1.726-1.513C16.441,25.989,15.766,26.762,15.823,27.655
			L15.823,27.655z"/>
</svg>
