<?xml version="1.0" encoding="utf-8"?>
<!-- Generator: Adobe Illustrator 15.0.0, SVG Export Plug-In . SVG Version: 6.00 Build 0)  -->
<!DOCTYPE svg PUBLIC "-//W3C//DTD SVG 1.1//EN" "http://www.w3.org/Graphics/SVG/1.1/DTD/svg11.dtd">
<svg version="1.1" id="SvgjsSvg1065" xmlns:svgjs="http://svgjs.com/svgjs"
	 xmlns="http://www.w3.org/2000/svg" xmlns:xlink="http://www.w3.org/1999/xlink" x="0px" y="0px" width="75px" height="74px"
	 viewBox="10 10 75 74" enable-background="new 10 10 75 74" xml:space="preserve">
<g>

	<path fill="#CB2817" d="M55.75,57.87v-0.681c-0.58,0.811-1.34,0.74-2.08,0.74c-0.9-0.011-1.8-0.011-2.689-0.109
		c-0.729-0.09-1.029-0.461-1.08-1.182c-0.029-0.31-0.021-0.64,0.021-0.949c0.052-0.5,0.46-0.931,1.011-0.939
		c1.301-0.04,2.59-0.04,3.881,0c0.289,0.01,0.568,0.24,0.898,0.391c-0.01-0.359,0.012-0.74-0.061-1.121
		c-0.08-0.42-0.391-0.709-0.83-0.738c-1-0.04-2-0.062-3-0.051c-0.521,0.011-0.811,0.311-0.829,0.851h-0.83
		c-0.188-0.75,0.159-1.36,0.948-1.511c1.382-0.279,2.791-0.289,4.182-0.01c0.7,0.129,1.2,0.561,1.221,1.319
		c0.039,1.31,0.01,2.62,0.01,3.99H55.75z M53.109,55.359c-0.619,0.051-1.229,0.07-1.83,0.16C50.83,55.59,50.79,55.99,50.8,56.37
		c0,0.37,0.2,0.66,0.55,0.67c1.211,0.04,2.43,0.04,3.642,0c0.438-0.021,0.688-0.38,0.659-0.79s-0.271-0.67-0.68-0.721
		C54.35,55.45,53.73,55.41,53.109,55.359z M66.15,56.18c0.08,0.73-0.2,1.23-0.871,1.48C65,57.76,64.7,57.859,64.4,57.87
		c-1.062,0.01-2.142,0.069-3.19-0.05c-1.37-0.16-1.76-0.57-1.94-1.92c-0.09-0.66-0.028-1.36,0.09-2.021
		c0.142-0.76,0.66-1.24,1.461-1.37c1.261-0.21,2.511-0.21,3.771,0.011c0.86,0.149,1.37,0.689,1.53,1.529
		c0.08,0.4,0.08,0.83,0.12,1.301h-6.07c0.011,1.17,0.341,1.711,1.399,1.739c0.949,0.03,1.891,0.021,2.83-0.021
		c0.511-0.021,0.851-0.289,0.891-0.891h0.859V56.18z M65.24,54.561c0.01-0.761-0.301-1.271-0.95-1.319
		c-1.021-0.08-2.06-0.091-3.08-0.021c-0.71,0.05-1.03,0.591-0.97,1.341H65.24z M35.7,55.32c-0.11,1.119,0.28,1.68,1.33,1.76
		c0.93,0.07,1.88,0.029,2.82,0c0.56-0.01,0.91-0.32,0.98-0.9h0.82c0.07,0.65-0.2,1.17-0.77,1.4c-0.26,0.109-0.55,0.22-0.83,0.22
		c-1.25,0.011-2.5,0.03-3.74-0.069c-0.91-0.069-1.39-0.75-1.5-1.601c-0.08-0.68-0.06-1.39,0.02-2.069
		c0.12-0.891,0.66-1.5,1.59-1.551c1.18-0.07,2.38-0.1,3.55,0.01c1.06,0.102,1.53,0.69,1.67,1.73c0.05,0.34,0.06,0.68,0.09,1.07H35.7
		z M40.8,54.57c0.01-0.801-0.28-1.28-0.97-1.33c-1.02-0.08-2.06-0.09-3.09-0.021c-0.68,0.051-1.04,0.641-0.96,1.352H40.8z
		 M72.99,54.13c-0.12-0.021-0.28-0.149-0.29-0.239c-0.03-0.421-0.3-0.609-0.66-0.609c-1.16-0.03-2.31-0.03-3.47,0
		c-0.4,0.01-0.6,0.289-0.61,0.71c0,0.399,0.19,0.64,0.59,0.659c0.65,0.029,1.31,0.051,1.96,0.069c0.69,0.03,1.381,0.03,2.061,0.101
		c0.83,0.08,1.261,0.601,1.279,1.479c0.021,0.89-0.369,1.46-1.22,1.5c-1.46,0.07-2.93,0.091-4.38,0c-1.05-0.06-1.45-0.7-1.29-1.78
		c0.28,0,0.56,0,0.84,0c0.021,0.021,0.05,0.041,0.06,0.07c0.111,0.9,0.111,0.971,1.031,1.03c1.09,0.06,2.189,0.021,3.279-0.03
		c0.551-0.029,0.76-0.34,0.74-0.8c-0.02-0.47-0.301-0.729-0.86-0.75c-1.021-0.03-2.04-0.04-3.06-0.07c-0.28,0-0.561-0.01-0.82-0.06
		c-0.811-0.15-1.17-0.6-1.16-1.43c0.01-0.82,0.381-1.312,1.16-1.44c1.42-0.229,2.85-0.26,4.27,0.01c0.91,0.17,1.222,0.61,1.16,1.591
		C73.4,54.141,73.189,54.17,72.99,54.13z M48.15,54.13c0.06-0.76-0.48-0.91-1.062-0.92c-1-0.021-2.01,0.01-3.01,0.06
		c-0.49,0.03-0.71,0.301-0.71,0.722c-0.01,0.47,0.28,0.659,0.69,0.67c0.67,0.028,1.34,0.04,2.01,0.06
		c0.64,0.021,1.28,0.03,1.92,0.102c0.85,0.09,1.25,0.58,1.26,1.479c0.01,0.932-0.34,1.45-1.21,1.5c-1.42,0.08-2.84,0.131-4.25,0.021
		c-1.2-0.09-1.48-0.562-1.41-1.83h0.82c0.03,0.05,0.06,0.07,0.06,0.09c0.09,0.87,0.12,0.98,1,1.029c1.11,0.07,2.22,0.029,3.33-0.029
		c0.57-0.03,0.761-0.32,0.729-0.83c-0.029-0.45-0.301-0.689-0.839-0.71c-1.17-0.04-2.35-0.05-3.52-0.09
		c-1.38-0.04-1.7-0.97-1.43-2.05c0.13-0.49,0.5-0.771,0.98-0.852c1.45-0.238,2.91-0.279,4.36,0c0.898,0.17,1.238,0.66,1.14,1.58
		L48.15,54.13L48.15,54.13z M57.58,50.08h0.82v7.75h-0.82V50.08z M21.93,47.74c-1.79-0.102-2.83-1.14-2.89-3.04
		c-0.07-1.811-0.03-3.63-0.01-5.44c0-0.31,0.06-0.63,0.13-0.939c0.31-1.311,1.16-2.141,2.51-2.181c2.96-0.1,5.92-0.12,8.88-0.14
		c0.64,0,1.29,0.04,1.91,0.15c1.57,0.29,2.28,1.07,2.47,2.82c0.22,2.061,0.26,4.13-0.05,6.2c-0.25,1.65-1.15,2.471-2.85,2.57
		c-1.67,0.1-3.35,0.16-5.02,0.24C25.31,47.9,23.62,47.84,21.93,47.74z M27.05,38.94C27.05,38.91,27.05,38.97,27.05,38.94
		c-1.07,0.04-2.14,0.05-3.2,0.15c-0.82,0.07-1.2,0.45-1.24,1.25c-0.06,1.04-0.06,2.09-0.02,3.13c0.04,0.76,0.49,1.24,1.24,1.26
		c2.11,0.04,4.21,0.04,6.32,0c0.78-0.02,1.19-0.47,1.23-1.25c0.06-1,0.06-2,0-2.99c-0.05-1.03-0.49-1.43-1.54-1.46
		C28.91,39,27.98,38.94,27.05,38.94z M59.08,36.1c0.17,0,0.32,0,0.46,0c3.62,0,7.239,0,10.86,0.03c0.648,0.01,1.31,0.11,1.938,0.28
		c1.261,0.35,1.91,1.29,2.08,2.52c0.271,2.01,0.319,4.04-0.062,6.05c-0.289,1.59-1.158,2.37-2.77,2.57
		c-0.89,0.12-1.79,0.181-2.689,0.19c-3.141,0.02-6.291,0.01-9.439,0.01c-0.12,0-0.229,0-0.38,0L59.08,36.1L59.08,36.1z M62.63,44.74
		c2.271,0,4.479,0.03,6.69-0.01c1.09-0.03,1.55-0.4,1.63-1.23c0.09-0.86,0.14-1.73,0.069-2.58c-0.119-1.54-0.521-1.87-2.08-1.89
		c-2.021-0.03-4.049-0.021-6.08-0.021c-0.069,0-0.149,0.021-0.229,0.03V44.74z M40.46,47.48c-0.12,0.12-0.32,0.25-0.48,0.26
		c-1.57,0.02-3.14,0.01-4.72,0c-0.04,0-0.07-0.021-0.07-0.021c1.92-1.96,3.85-3.93,5.81-5.93c-1.77-1.84-3.57-3.72-5.43-5.65
		c0.14-0.02,0.22-0.04,0.3-0.04c1.41,0,2.81-0.02,4.22,0.01c0.21,0.01,0.48,0.17,0.63,0.34c1.1,1.21,2.18,2.45,3.31,3.72
		c0.36-0.39,0.7-0.76,1.04-1.14c0.8-0.9,1.6-1.8,2.4-2.69c0.1-0.11,0.27-0.229,0.4-0.229c1.55-0.021,3.09-0.01,4.76-0.01
		c-1.909,1.95-3.75,3.84-5.61,5.74c1.98,1.93,3.93,3.85,5.89,5.78c-0.02,0.04-0.051,0.08-0.07,0.13c-0.39,0-0.77,0-1.16,0
		c-1.13,0-2.26-0.01-3.39,0c-0.28,0.01-0.47-0.07-0.67-0.29c-1.17-1.29-2.36-2.57-3.58-3.89C42.82,44.9,41.65,46.2,40.46,47.48z
		 M53.68,36.12h3.7v11.6h-3.7V36.12z"/>
</g>
</svg>
