<?xml version="1.0" encoding="utf-8"?>
<!-- Generator: Adobe Illustrator 15.0.0, SVG Export Plug-In . SVG Version: 6.00 Build 0)  -->
<!DOCTYPE svg PUBLIC "-//W3C//DTD SVG 1.1//EN" "http://www.w3.org/Graphics/SVG/1.1/DTD/svg11.dtd">
<svg version="1.1" id="SvgjsSvg1015" xmlns:svgjs="http://svgjs.com/svgjs"
	 xmlns="http://www.w3.org/2000/svg" xmlns:xlink="http://www.w3.org/1999/xlink" x="0px" y="0px" width="75px" height="74px"
	 viewBox="0 0 75 74" enable-background="new 0 0 75 74" xml:space="preserve">
<g>
	<path fill="#1F97D2" d="M50.047,27.9c0.453-2.875,0-4.843-1.562-6.608c-1.702-1.953-4.795-2.797-8.75-2.797
		H28.269c-0.797,0-1.485,0.594-1.625,1.391l-4.766,30.371c-0.093,0.611,0.358,1.143,0.969,1.143h7.078l-0.484,3.107
		c-0.079,0.533,0.328,1,0.844,1h5.968c0.719,0,1.312-0.516,1.422-1.217l0.062-0.295l1.124-7.154l0.079-0.391
		c0.109-0.705,0.702-1.221,1.406-1.221h0.891c5.794,0,10.311-2.359,11.638-9.17c0.548-2.844,0.266-5.219-1.188-6.89
		C51.234,28.665,50.688,28.244,50.047,27.9"/>
	<path fill="#1F264E" fill-opacity="0.9" d="M49.954,27.931c0.435-2.891-0.016-4.858-1.562-6.64
		c-1.703-1.953-4.782-2.797-8.718-2.797H28.252c-0.812,0-1.5,0.594-1.625,1.391l-4.75,30.482c-0.093,0.592,0.358,1.137,0.969,1.137
		h7.046l1.781-11.342l-0.062,0.344c0.125-0.797,0.814-1.391,1.609-1.391h3.359c6.594,0,11.747-2.703,13.249-10.514
		C49.875,28.368,49.906,28.15,49.954,27.931"/>
	<path fill="#283F82" d="M34.33,27.962c0.078-0.484,0.391-0.875,0.797-1.078c0.188-0.078,0.391-0.14,0.625-0.14
		h8.952c1.062,0,2.046,0.078,2.952,0.218c0.266,0.047,0.516,0.094,0.751,0.14c0.25,0.062,0.483,0.125,0.719,0.188
		c0.107,0.031,0.233,0.079,0.343,0.11c0.438,0.155,0.86,0.328,1.234,0.531c0.453-2.891,0-4.858-1.546-6.64
		c-1.704-1.953-4.781-2.797-8.718-2.797H28.252c-0.812,0-1.5,0.594-1.625,1.391l-4.75,30.482c-0.093,0.592,0.358,1.137,0.969,1.137
		h7.812L34.33,27.962"/>
</g>
</svg>
