<?xml version="1.0" encoding="utf-8"?>
<!-- Generator: Adobe Illustrator 15.0.0, SVG Export Plug-In . SVG Version: 6.00 Build 0)  -->
<!DOCTYPE svg PUBLIC "-//W3C//DTD SVG 1.1//EN" "http://www.w3.org/Graphics/SVG/1.1/DTD/svg11.dtd">
<svg version="1.1" id="SvgjsSvg1015" xmlns:svgjs="http://svgjs.com/svgjs"
	 xmlns="http://www.w3.org/2000/svg" xmlns:xlink="http://www.w3.org/1999/xlink" x="0px" y="0px" width="75px" height="74px"
	 viewBox="0 0 75 74" enable-background="new 0 0 75 74" xml:space="preserve">
<g>
	<path fill="#E50101" d="M37.5,57.736c12.688,0,23.04-5.1,23.04-11.352c0-4.576-5.544-8.541-13.47-10.337
		c-0.047-1.152,0.091-2.857-0.753-4.731c-1.23-2.749-3.963-5.821-6.159-8.847c-2.182-3.011-1.674-5.253-1.813-6.206
		c-0.968,0.6-3.395,3.119-2.165,7.419c1.213,4.255,5.744,8.971,7.142,11.412c1.382,2.443,1.152,4.687,0.752,6.067
		c-0.399,1.383-1.152,1.951-1.78,2.352c0.046-0.922,0.015-2.166-0.554-3.49c-0.567-1.334-3.318-4.513-5.314-6.85
		c-2.012-2.334-3.947-5.852-3.072-8.632c-0.875,0.521-2.703,2.81-2.611,5.483c0.092,2.657,2.334,6.281,3.732,7.987
		c1.383,1.721,3.794,5.146,4.271,7.034c0.477,1.889,0.306,3.24-0.106,4.209c-0.341,0.814-1.492,1.721-1.492,1.721
		s0.107-1.305-0.369-2.318c-0.476-1.014-5.99-8.434-6.542-9.201c-0.491-0.705-1.782-2.179-1.721-3.532
		c-8.249,1.736-14.054,5.776-14.054,10.46C14.46,52.637,24.813,57.736,37.5,57.736"/>
</g>
</svg>
