<?xml version="1.0" encoding="utf-8"?>
<!-- Generator: Adobe Illustrator 15.0.0, SVG Export Plug-In . SVG Version: 6.00 Build 0)  -->
<!DOCTYPE svg PUBLIC "-//W3C//DTD SVG 1.1//EN" "http://www.w3.org/Graphics/SVG/1.1/DTD/svg11.dtd">
<svg version="1.1" id="SvgjsSvg1015" xmlns:svgjs="http://svgjs.com/svgjs"
	 xmlns="http://www.w3.org/2000/svg" xmlns:xlink="http://www.w3.org/1999/xlink" x="0px" y="0px" width="75px" height="74px"
	 viewBox="0 0 75 74" enable-background="new 0 0 75 74" xml:space="preserve">
<g>
	<path fill="#FDB937" d="M66.409,13.68L40.087,35.893c-1.029,1.012-2.686,1.012-3.714,0c-1.028-1.013-1.028-2.654,0-3.667
		l26.324-22.196c1.028-1.013,2.685-1.013,3.712,0C67.438,11.041,67.438,12.684,66.409,13.68z M38.98,37.013L12.182,50.128
		c-1.028,1.013-2.685,1.013-3.712,0c-1.028-1.014-1.028-2.637,0-3.649l26.799-13.134c1.028-1.013,2.683-1.013,3.711,0
		C39.993,34.358,39.993,36,38.98,37.013z M37.67,27.854c3.62,0,6.565,2.899,6.565,6.474c0,3.576-2.945,6.473-6.565,6.473
		c-3.621,0-6.55-2.897-6.55-6.473C31.12,30.753,34.049,27.854,37.67,27.854 M11.146,41.376c3.636,0,6.565,2.887,6.565,6.46
		c0,3.574-2.93,6.474-6.565,6.474c-3.62,0-6.55-2.899-6.55-6.474C4.596,44.263,7.526,41.376,11.146,41.376 M63.749,5.212
		c3.636,0,6.564,2.899,6.564,6.474c0,3.574-2.929,6.473-6.564,6.473c-3.619,0-6.566-2.899-6.566-6.473
		C57.183,8.111,60.13,5.212,63.749,5.212"/>
	<path id="SvgjsPath1023" fill="#FFFFFF" d="M37.662,31.325c1.703,0,3.068,1.349,3.068,3.021c0,1.673-1.365,3.022-3.068,3.022
		c-1.688,0-3.052-1.349-3.052-3.022C34.609,32.673,35.974,31.325,37.662,31.325"/>
	<path id="SvgjsPath1024_1_" fill="#FFFFFF" d="M63.748,8.664c1.701,0,3.067,1.35,3.067,3.022c0,1.672-1.366,3.022-3.067,3.022
		c-1.688,0-3.055-1.35-3.055-3.022C60.693,10.014,62.06,8.664,63.748,8.664"/>
	<path id="SvgjsPath1025" fill="#FFFFFF" d="M10.991,45.022c1.703,0,3.068,1.352,3.068,3.022c0,1.673-1.366,3.021-3.068,3.021
		c-1.688,0-3.053-1.349-3.053-3.021C7.938,46.374,9.303,45.022,10.991,45.022"/>
	<path id="SvgjsPath1026" fill="#8E8E8E" d="M37.446,50.082c0.737,0,1.319,0.582,1.319,1.289v15.538c0,0.723-0.582,1.29-1.319,1.29
		c-0.721,0-1.303-0.567-1.303-1.29V51.371C36.143,50.664,36.726,50.082,37.446,50.082"/>
	<path id="SvgjsPath1027" fill="#8E8E8E" d="M11.154,62.109v5.461c0,0.72-0.583,1.304-1.319,1.304c-0.721,0-1.304-0.584-1.304-1.304
		v-5.461c0-0.708,0.583-1.289,1.304-1.289C10.571,60.82,11.154,61.401,11.154,62.109z"/>
	<path id="SvgjsPath1028" fill="#8E8E8E" d="M66.378,28.36v38.965c0,0.704-0.583,1.288-1.319,1.288
		c-0.721,0-1.304-0.584-1.304-1.288V28.36c0-0.705,0.583-1.288,1.304-1.288C65.795,27.072,66.378,27.655,66.378,28.36z"/>
</g>
</svg>
