<?xml version="1.0" encoding="utf-8"?>
<!-- Generator: Adobe Illustrator 15.0.0, SVG Export Plug-In . SVG Version: 6.00 Build 0)  -->
<!DOCTYPE svg PUBLIC "-//W3C//DTD SVG 1.1//EN" "http://www.w3.org/Graphics/SVG/1.1/DTD/svg11.dtd">
<svg version="1.1" id="SvgjsSvg1015" xmlns:svgjs="http://svgjs.com/svgjs"
	 xmlns="http://www.w3.org/2000/svg" xmlns:xlink="http://www.w3.org/1999/xlink" x="0px" y="0px" width="75px" height="74px"
	 viewBox="0 0 75 74" enable-background="new 0 0 75 74" xml:space="preserve">
<g>
	<path id="SvgjsPath1013" d="M46.434,47.904v-0.682c-0.58,0.812-1.341,0.74-2.08,0.74c-0.9-0.01-1.801-0.01-2.689-0.109
		c-0.73-0.09-1.03-0.461-1.08-1.18c-0.029-0.311-0.021-0.641,0.02-0.951c0.051-0.5,0.461-0.93,1.01-0.938
		c1.302-0.04,2.591-0.04,3.882,0c0.289,0.01,0.569,0.239,0.899,0.391c-0.011-0.36,0.01-0.739-0.061-1.12
		c-0.08-0.421-0.391-0.71-0.83-0.74c-1-0.039-2-0.06-3-0.049c-0.521,0.01-0.811,0.31-0.83,0.85h-0.83
		c-0.189-0.75,0.16-1.359,0.949-1.51c1.381-0.28,2.791-0.291,4.182-0.011c0.699,0.13,1.199,0.561,1.219,1.319
		c0.041,1.311,0.011,2.62,0.011,3.99H46.434z M43.792,45.395c-0.619,0.051-1.229,0.069-1.83,0.16
		c-0.448,0.069-0.489,0.471-0.479,0.851c0,0.37,0.201,0.659,0.551,0.67c1.211,0.04,2.43,0.04,3.641,0
		c0.439-0.021,0.689-0.38,0.66-0.79s-0.271-0.67-0.68-0.721C45.032,45.484,44.413,45.443,43.792,45.395z M56.833,46.214
		c0.08,0.729-0.2,1.229-0.871,1.479c-0.278,0.101-0.579,0.199-0.879,0.211c-1.062,0.01-2.142,0.068-3.19-0.051
		c-1.369-0.16-1.76-0.569-1.939-1.92c-0.09-0.66-0.029-1.359,0.09-2.021c0.141-0.761,0.66-1.239,1.461-1.37
		c1.26-0.21,2.51-0.21,3.77,0.01c0.86,0.15,1.371,0.69,1.531,1.53c0.079,0.399,0.079,0.83,0.119,1.3h-6.07
		c0.01,1.17,0.34,1.711,1.4,1.74c0.949,0.029,1.891,0.02,2.83-0.02c0.51-0.021,0.85-0.291,0.891-0.892h0.858V46.214z M55.923,44.595
		c0.011-0.761-0.301-1.271-0.95-1.319c-1.021-0.08-2.06-0.09-3.08-0.021c-0.709,0.05-1.029,0.59-0.97,1.34H55.923z M26.383,45.354
		c-0.11,1.119,0.28,1.681,1.33,1.761c0.93,0.069,1.88,0.028,2.82,0c0.56-0.011,0.91-0.32,0.98-0.9h0.82c0.07,0.65-0.2,1.17-0.77,1.4
		c-0.26,0.108-0.55,0.22-0.83,0.22c-1.25,0.011-2.5,0.03-3.74-0.068c-0.91-0.07-1.39-0.75-1.5-1.602
		c-0.08-0.68-0.06-1.391,0.02-2.069c0.12-0.891,0.66-1.5,1.59-1.551c1.18-0.069,2.38-0.101,3.55,0.011
		c1.06,0.101,1.53,0.689,1.67,1.729c0.05,0.34,0.06,0.68,0.09,1.069H26.383z M31.483,44.604c0.01-0.801-0.28-1.279-0.97-1.33
		c-1.02-0.08-2.06-0.09-3.09-0.02c-0.68,0.049-1.04,0.639-0.96,1.35H31.483z M63.673,44.164c-0.12-0.021-0.28-0.148-0.29-0.239
		c-0.029-0.42-0.3-0.61-0.66-0.61c-1.16-0.029-2.31-0.029-3.47,0c-0.399,0.011-0.601,0.291-0.61,0.711c0,0.399,0.19,0.64,0.59,0.66
		c0.65,0.028,1.311,0.049,1.961,0.069c0.689,0.029,1.381,0.029,2.061,0.101c0.83,0.08,1.26,0.6,1.279,1.479
		c0.021,0.891-0.369,1.46-1.221,1.5c-1.459,0.07-2.93,0.091-4.379,0c-1.051-0.061-1.451-0.7-1.291-1.779c0.28,0,0.561,0,0.84,0
		c0.021,0.021,0.051,0.04,0.061,0.069c0.111,0.899,0.111,0.971,1.031,1.03c1.09,0.06,2.189,0.021,3.279-0.03
		c0.551-0.029,0.76-0.34,0.739-0.8c-0.021-0.471-0.301-0.729-0.86-0.75c-1.021-0.03-2.039-0.04-3.06-0.069
		c-0.28,0-0.562-0.011-0.819-0.062c-0.812-0.149-1.17-0.6-1.16-1.43c0.01-0.82,0.381-1.311,1.16-1.439
		c1.42-0.229,2.85-0.262,4.27,0.01c0.91,0.171,1.221,0.609,1.16,1.591C64.083,44.175,63.872,44.204,63.673,44.164z M38.833,44.164
		c0.06-0.76-0.479-0.909-1.06-0.92c-1-0.021-2.01,0.011-3.01,0.061c-0.49,0.029-0.71,0.301-0.71,0.721
		c-0.01,0.47,0.28,0.66,0.69,0.67c0.67,0.029,1.34,0.039,2.01,0.061c0.64,0.02,1.28,0.029,1.92,0.1
		c0.851,0.09,1.25,0.58,1.261,1.479c0.01,0.931-0.341,1.45-1.211,1.5c-1.418,0.08-2.839,0.13-4.25,0.021
		c-1.2-0.09-1.48-0.561-1.41-1.83h0.82c0.03,0.051,0.06,0.07,0.06,0.091c0.09,0.87,0.12,0.979,1,1.028
		c1.11,0.07,2.22,0.031,3.329-0.028c0.57-0.03,0.761-0.32,0.73-0.83c-0.029-0.45-0.301-0.688-0.84-0.71
		c-1.17-0.04-2.35-0.051-3.52-0.09c-1.38-0.041-1.7-0.971-1.43-2.051c0.13-0.49,0.5-0.771,0.98-0.851c1.45-0.239,2.91-0.28,4.359,0
		c0.899,0.171,1.239,0.66,1.141,1.58L38.833,44.164L38.833,44.164z M48.264,40.114h0.819v7.75h-0.819V40.114z M12.613,37.773
		c-1.79-0.1-2.83-1.14-2.89-3.04c-0.07-1.81-0.03-3.63-0.01-5.44c0-0.31,0.06-0.63,0.13-0.94c0.31-1.31,1.16-2.14,2.51-2.18
		c2.96-0.1,5.92-0.12,8.88-0.14c0.64,0,1.29,0.04,1.91,0.15c1.57,0.29,2.28,1.07,2.47,2.82c0.22,2.06,0.26,4.13-0.05,6.2
		c-0.25,1.65-1.15,2.471-2.85,2.569c-1.67,0.101-3.35,0.16-5.02,0.24C15.993,37.936,14.303,37.874,12.613,37.773z M17.733,28.974
		C17.733,28.944,17.733,29.004,17.733,28.974c-1.07,0.04-2.14,0.05-3.2,0.15c-0.82,0.07-1.2,0.45-1.24,1.25
		c-0.06,1.04-0.06,2.09-0.02,3.13c0.04,0.76,0.49,1.24,1.24,1.26c2.11,0.04,4.21,0.04,6.32,0c0.78-0.02,1.19-0.47,1.23-1.25
		c0.06-1,0.06-2,0-2.99c-0.05-1.03-0.49-1.43-1.54-1.46C19.593,29.034,18.663,28.974,17.733,28.974z M49.764,26.134
		c0.17,0,0.319,0,0.459,0c3.62,0,7.239,0,10.86,0.03c0.649,0.01,1.31,0.11,1.938,0.28c1.261,0.35,1.91,1.29,2.08,2.52
		c0.271,2.01,0.32,4.04-0.061,6.05c-0.289,1.59-1.159,2.37-2.77,2.57c-0.891,0.12-1.791,0.182-2.689,0.189
		c-3.141,0.021-6.291,0.011-9.439,0.011c-0.121,0-0.229,0-0.381,0v-11.65H49.764z M53.312,34.774c2.271,0,4.479,0.03,6.689-0.01
		c1.09-0.03,1.55-0.4,1.63-1.23c0.091-0.86,0.14-1.73,0.069-2.58c-0.119-1.54-0.52-1.87-2.08-1.89c-2.02-0.03-4.049-0.02-6.08-0.02
		c-0.068,0-0.148,0.02-0.229,0.03V34.774z M31.143,37.516c-0.12,0.118-0.32,0.25-0.48,0.26c-1.57,0.02-3.14,0.01-4.72,0
		c-0.04,0-0.07-0.021-0.07-0.021c1.92-1.961,3.85-3.931,5.81-5.931c-1.77-1.84-3.57-3.72-5.43-5.65c0.14-0.02,0.22-0.04,0.3-0.04
		c1.41,0,2.81-0.02,4.22,0.01c0.21,0.01,0.48,0.17,0.63,0.34c1.1,1.21,2.18,2.45,3.31,3.72c0.36-0.39,0.7-0.76,1.04-1.14
		c0.8-0.9,1.6-1.8,2.399-2.69c0.101-0.11,0.271-0.23,0.399-0.23c1.55-0.02,3.091-0.01,4.761-0.01c-1.91,1.95-3.75,3.84-5.609,5.74
		c1.979,1.93,3.93,3.85,5.89,5.78c-0.021,0.039-0.051,0.08-0.069,0.13c-0.391,0-0.771,0-1.16,0c-1.131,0-2.26-0.011-3.391,0
		c-0.279,0.01-0.47-0.07-0.67-0.29c-1.169-1.29-2.359-2.57-3.58-3.89C33.503,34.934,32.333,36.234,31.143,37.516z M44.361,26.154
		h3.701v11.601h-3.701V26.154z"/>
</g>
</svg>
