<?xml version="1.0" encoding="utf-8"?>
<!-- Generator: Adobe Illustrator 15.0.0, SVG Export Plug-In . SVG Version: 6.00 Build 0)  -->
<!DOCTYPE svg PUBLIC "-//W3C//DTD SVG 1.1//EN" "http://www.w3.org/Graphics/SVG/1.1/DTD/svg11.dtd">
<svg version="1.1" id="SvgjsSvg1015" xmlns:svgjs="http://svgjs.com/svgjs"
	 xmlns="http://www.w3.org/2000/svg" xmlns:xlink="http://www.w3.org/1999/xlink" x="0px" y="0px" width="75px" height="74px"
	 viewBox="0 0 75 74" enable-background="new 0 0 75 74" xml:space="preserve">
<g>
	<path id="SvgjsPath1022" d="M45.715,24.465c-1.77-5.76-6.32-6.39-8.21-6.39c-1.9,0-6.44,0.63-8.22,6.39
		c-0.99-3.83-4.201-6.39-8.051-6.39c-4.729,0-8.43,3.38-8.43,7.69c0,1.91,0.47,3.43,1.04,5.08l6.42,18.14
		c2.149,6.02,6.53,6.92,8.94,6.92c3.8,0,6.75-1.939,8.289-5.38c1.551,3.45,4.5,5.399,8.301,5.399c2.41,0,6.779-0.899,8.939-6.93
		l6.461-18.21l0.049-0.15c0.07-0.23,0.15-0.45,0.221-0.66c0.34-1.01,0.73-2.16,0.73-3.58c0-4.82-3.551-8.32-8.431-8.32
		C49.914,18.075,46.705,20.635,45.715,24.465z M50.395,47.425c-0.79,2.211-2.1,3.851-4.561,3.851c-2.309,0-3.68-1.29-4.359-3.5
		l-3.88-12.11h-0.11l-3.88,12.11c-0.68,2.21-2.05,3.47-4.35,3.47c-2.47,0-3.78-1.63-4.57-3.83l-6.4-18.09
		c-0.52-1.52-0.79-2.46-0.79-3.57c0-1.67,1.58-3.03,3.781-3.03c1.84,0,3.149,1.21,3.569,2.99l4.351,14.43h0.109l4.41-14.11
		c0.57-2.05,1.619-3.31,3.83-3.31c2.199,0,3.25,1.26,3.83,3.3l4.4,14.12h0.109l4.35-14.43c0.42-1.78,1.73-3,3.57-3
		c2.2,0,3.779,1.37,3.779,3.67c0,0.84-0.369,1.69-0.739,2.84L50.395,47.425z"/>
</g>
</svg>
