<?xml version="1.0" encoding="utf-8"?>
<!-- Generator: Adobe Illustrator 15.0.0, SVG Export Plug-In . SVG Version: 6.00 Build 0)  -->
<!DOCTYPE svg PUBLIC "-//W3C//DTD SVG 1.1//EN" "http://www.w3.org/Graphics/SVG/1.1/DTD/svg11.dtd">
<svg version="1.1" id="SvgjsSvg1015" xmlns:svgjs="http://svgjs.com/svgjs"
	 xmlns="http://www.w3.org/2000/svg" xmlns:xlink="http://www.w3.org/1999/xlink" x="0px" y="0px" width="75px" height="74px"
	 viewBox="0 0 75 74" enable-background="new 0 0 75 74" xml:space="preserve">
<path d="M58.498,22H16.502c-1.668,0-3.002,1.343-3.002,3v24c0,1.652,1.344,3,3.002,3h41.996c1.668,0,3.002-1.344,3.002-3V25
	C61.5,23.347,60.156,22,58.498,22z M60.633,25.273l-21.912,17.93l-0.545,0.7l-0.16-0.124l-0.156,0.128l-0.562-0.687L14.886,25.789
	l-0.79-0.614l1.228-1.579l0.789,0.614l21.871,17.011l21.383-17.495l0.773-0.634l1.267,1.549L60.633,25.273z"/>
</svg>
