<?xml version="1.0" encoding="utf-8"?>
<!-- Generator: Adobe Illustrator 15.0.0, SVG Export Plug-In . SVG Version: 6.00 Build 0)  -->
<!DOCTYPE svg PUBLIC "-//W3C//DTD SVG 1.1//EN" "http://www.w3.org/Graphics/SVG/1.1/DTD/svg11.dtd">
<svg version="1.1" id="SvgjsSvg1035" xmlns:svgjs="http://svgjs.com/svgjs"
	 xmlns="http://www.w3.org/2000/svg" xmlns:xlink="http://www.w3.org/1999/xlink" x="0px" y="0px" width="75px" height="74px"
	 viewBox="0 0 75 74" enable-background="new 0 0 75 74" xml:space="preserve">
<path id="SvgjsPath1044" fill="#9B5C8F" d="M58.185,21.57c2.621,0,4.74,2.16,4.74,4.83V42.51c0,2.67-2.119,4.83-4.74,4.83h-14.84
	l2.041,5.09l-8.959-5.09H16.815c-2.62,0-4.74-2.16-4.74-4.83V26.4c-0.02-2.65,2.1-4.83,4.72-4.83H58.185z M14.615,25.96
	c-0.29,0.379-0.4,0.87-0.34,1.42c1.23,7.949,2.37,13.31,3.43,16.08c0.42,1.021,0.9,1.51,1.46,1.471
	c0.87-0.069,1.91-1.301,3.14-3.689c0.64-1.357,1.64-3.39,2.99-6.109c1.13,4.008,2.66,7.02,4.6,9.029c0.539,0.58,1.1,0.83,1.64,0.79
	c0.479-0.04,0.851-0.3,1.101-0.771c0.209-0.399,0.289-0.859,0.25-1.392c-0.121-1.93,0.06-4.62,0.58-8.079
	c0.539-3.561,1.209-6.121,2.02-7.649c0.17-0.32,0.23-0.64,0.21-1.021c-0.04-0.49-0.25-0.89-0.649-1.21
	c-0.391-0.31-0.83-0.46-1.311-0.42c-0.6,0.04-1.061,0.34-1.37,0.93c-1.29,2.4-2.2,6.28-2.74,11.66c-0.79-2.029-1.46-4.43-1.979-7.25
	c-0.23-1.25-0.791-1.84-1.7-1.779c-0.63,0.039-1.15,0.47-1.56,1.27l-4.56,8.84c-0.74-3.07-1.45-6.82-2.09-11.25
	c-0.15-1.11-0.75-1.61-1.81-1.53C15.335,25.34,14.905,25.55,14.615,25.96z M55.985,26.83c-0.4-0.09-0.77-0.13-1.12-0.13
	c-2,0-3.62,1.06-4.89,3.181c-1.08,1.799-1.621,3.789-1.621,5.979c0,1.63,0.33,3.03,1,4.19c0.75,1.34,1.851,2.14,3.32,2.459
	c0.4,0.091,0.771,0.131,1.131,0.131c2.01,0,3.629-1.062,4.879-3.182c1.08-1.818,1.621-3.82,1.621-6c0-1.649-0.33-3.029-0.99-4.181
	C58.565,27.95,57.466,27.141,55.985,26.83z M55.115,38.29c-0.61,0.55-1.17,0.79-1.69,0.681c-0.5-0.108-0.91-0.551-1.22-1.381
	c-0.25-0.647-0.38-1.31-0.38-1.93c0-0.529,0.04-1.06,0.15-1.54c0.18-0.87,0.539-1.72,1.1-2.52c0.689-1.04,1.41-1.47,2.16-1.32
	c0.5,0.11,0.92,0.55,1.23,1.38c0.25,0.66,0.367,1.311,0.367,1.93c0,0.551-0.061,1.08-0.14,1.57
	C56.405,36.551,55.886,37.59,55.115,38.29z M42.945,26.83c-0.39-0.09-0.771-0.13-1.12-0.13c-1.99,0-3.62,1.06-4.88,3.181
	c-1.091,1.799-1.63,3.789-1.63,5.979c0,1.63,0.34,3.03,1,4.19c0.75,1.34,1.85,2.14,3.33,2.459c0.391,0.09,0.771,0.131,1.119,0.131
	c2.021,0,3.642-1.062,4.892-3.182c1.08-1.818,1.62-3.82,1.62-6c0-1.649-0.33-3.029-1-4.181C45.525,27.95,44.405,27.141,42.945,26.83
	z M42.075,38.29c-0.6,0.55-1.16,0.79-1.68,0.681c-0.5-0.108-0.92-0.551-1.23-1.381c-0.25-0.647-0.369-1.31-0.369-1.93
	c0-0.529,0.039-1.06,0.139-1.54c0.19-0.87,0.541-1.72,1.103-2.52c0.688-1.04,1.42-1.47,2.17-1.32c0.49,0.11,0.91,0.55,1.222,1.38
	c0.25,0.66,0.381,1.311,0.381,1.93c0,0.551-0.051,1.08-0.15,1.57C43.365,36.551,42.845,37.59,42.075,38.29z"/>
</svg>
