<?xml version="1.0" encoding="utf-8"?>
<!-- Generator: Adobe Illustrator 15.0.0, SVG Export Plug-In . SVG Version: 6.00 Build 0)  -->
<!DOCTYPE svg PUBLIC "-//W3C//DTD SVG 1.1//EN" "http://www.w3.org/Graphics/SVG/1.1/DTD/svg11.dtd">
<svg version="1.1" id="SvgjsSvg1015" xmlns:svgjs="http://svgjs.com/svgjs"
	 xmlns="http://www.w3.org/2000/svg" xmlns:xlink="http://www.w3.org/1999/xlink" x="0px" y="0px" width="75px" height="74px"
	 viewBox="0 0 75 74" enable-background="new 0 0 75 74" xml:space="preserve">
	 <defs>
		<linearGradient id="Fill-1_1_" gradientUnits="userSpaceOnUse" x1="-259.1611" y1="456.5273" x2="-259.1611" y2="456.3682" 
			gradientTransform="matrix(148.8995 0 0 -255.6831 38626.4883 116743.0156)">
			<stop  offset="0" style="stop-color:#7DD3F9"/>
			<stop  offset="1" style="stop-color:#3D83F7"/>
		</linearGradient>
	</defs>
	<path id="Fill-1" fill="url(#Fill-1_1_)" d="M26.62,32.381c-0.598,0.148-1.009,0.678-0.988,1.273v2.071
		c0,5.864,4.651,10.658,10.551,11.305v7.804h-5.276c-1.582,0-2.638,1.019-2.638,2.549h18.463c0-1.53-1.054-2.549-2.638-2.549h-5.275
		V47.03c5.9-0.646,10.551-5.44,10.551-11.305v-2.071c0-0.703-0.59-1.273-1.32-1.273c-0.728,0-1.317,0.57-1.317,1.273v2.071
		c0,4.909-4.148,8.916-9.233,8.916c-5.082,0-9.23-4.007-9.23-8.916v-2.071c0.007-0.703-0.578-1.277-1.308-1.283
		c-0.058-0.001-0.117,0.003-0.177,0.01c-0.057-0.003-0.111-0.003-0.167,0H26.62z M37.499,16.617c-3.69,0-6.593,2.803-6.593,6.369
		v12.736c0,3.567,2.902,6.369,6.593,6.369c3.695,0,6.595-2.802,6.595-6.369V22.986C44.094,19.42,41.193,16.617,37.499,16.617
		L37.499,16.617z"/>
</svg>
