<?xml version="1.0" encoding="utf-8"?>
<!-- Generator: Adobe Illustrator 15.0.0, SVG Export Plug-In . SVG Version: 6.00 Build 0)  -->
<!DOCTYPE svg PUBLIC "-//W3C//DTD SVG 1.1//EN" "http://www.w3.org/Graphics/SVG/1.1/DTD/svg11.dtd">
<svg version="1.1" id="SvgjsSvg1015" xmlns:svgjs="http://svgjs.com/svgjs"
	 xmlns="http://www.w3.org/2000/svg" xmlns:xlink="http://www.w3.org/1999/xlink" x="0px" y="0px" width="75px" height="74px"
	 viewBox="0 0 75 74" enable-background="new 0 0 75 74" xml:space="preserve">
<g>
	<path fill="#2B3894" d="M41.033,43.062l-0.219-1.206c-0.393-1.381-1.586-2.88-2.937-3.621l1.89,7.561h2.254l3.33-8.637h-2.24
		L41.033,43.062z M46.209,37.146l-1.322,8.667h2.121l1.324-8.667H46.209z M52.795,37c-2.092,0-3.576,1.179-3.59,2.85
		c-0.016,1.251,1.061,1.948,1.861,2.356c0.828,0.422,1.104,0.697,1.104,1.075c-0.014,0.579-0.668,0.844-1.279,0.844
		c-0.842,0-1.293-0.13-1.992-0.452l-0.275-0.131l-0.291,1.934c0.494,0.232,1.412,0.453,2.355,0.453c2.225,0,3.678-1.15,3.693-2.954
		c0.014-0.987-0.553-1.729-1.775-2.354c-0.74-0.395-1.191-0.655-1.191-1.062c0-0.364,0.379-0.756,1.209-0.756
		c0.695,0,1.205,0.159,1.584,0.332l0.205,0.103l0.275-1.876C54.264,37.188,53.611,37,52.795,37z M58.48,37.159
		c-0.508,0-0.885,0.16-1.105,0.712l-3.141,7.941h2.225c0,0,0.363-1.077,0.438-1.308c0.248,0,2.414,0.014,2.719,0.014
		c0.059,0.292,0.262,1.296,0.262,1.296h1.963l-1.717-8.655H58.48z M57.508,42.744c0.174-0.51,0.842-2.428,0.842-2.428
		c-0.014,0.027,0.174-0.497,0.289-0.83l0.146,0.757c0,0,0.395,2.064,0.48,2.503h-1.758V42.744z"/>
	<path fill="#2B3894" d="M38.416,35.546h-3.417l-0.029,0.175c2.661,0.727,4.421,2.458,5.147,4.537l-0.742-3.984
		C39.244,35.734,38.88,35.561,38.416,35.546"/>
	<path fill="#0193CF" d="M13.16,57.356V41.361h17.448v15.995H13.16z"/>
	<path fill="#FFFFFF" d="M16.781,48.574h9.727c0.393,0,0.698-0.306,0.698-0.697c0-0.38-0.305-0.698-0.698-0.698h-9.727
		c-0.393,0-0.713,0.318-0.713,0.698C16.068,48.269,16.388,48.574,16.781,48.574z"/>
	<path fill="#FFFFFF" d="M18.234,51.481h9.727c0.393,0,0.698-0.306,0.698-0.696c0-0.379-0.305-0.697-0.698-0.697h-9.727
		c-0.393-0.002-0.713,0.318-0.713,0.697C17.521,51.176,17.842,51.481,18.234,51.481z"/>
	<path fill="#CC0000" d="M29.604,24.787c0,4.507-3.679,8.142-8.215,8.142c-4.552,0-8.23-3.635-8.23-8.142
		c0-4.494,3.678-8.144,8.23-8.144C25.926,16.644,29.604,20.293,29.604,24.787"/>
	<path fill="#FF9900" d="M31.377,16.644c-2.123,0-4.056,0.8-5.524,2.108c-0.291,0.262-0.567,0.553-0.829,0.858h1.657
		c0.232,0.276,0.437,0.566,0.64,0.872h-2.922c-0.175,0.276-0.334,0.553-0.48,0.858h3.868c0.131,0.275,0.248,0.566,0.349,0.857
		h-4.565c-0.088,0.291-0.175,0.567-0.233,0.872h5.046c0.116,0.553,0.174,1.119,0.174,1.717c0,0.9-0.145,1.772-0.421,2.587h-4.565
		c0.101,0.291,0.218,0.582,0.348,0.857h3.868c-0.145,0.307-0.291,0.597-0.479,0.873h-2.908c0.188,0.291,0.392,0.581,0.625,0.858
		h1.657c-0.247,0.306-0.523,0.596-0.829,0.857c1.469,1.323,3.402,2.108,5.524,2.108c4.538,0,8.23-3.635,8.23-8.142
		C39.607,20.293,35.915,16.644,31.377,16.644"/>
	<path fill="#FF9900" d="M30.608,22.46h6.615v1.309h-6.615V22.46z"/>
	<path fill="#FF9900" d="M23.468,23.914h6.34v1.018h-6.471L23.468,23.914z"/>
	<path fill="#FF9900" d="M23.337,25.368h6.354v1.018h-6.223L23.337,25.368z"/>
</g>
</svg>
