<?xml version="1.0" encoding="utf-8"?>
<!-- Generator: Adobe Illustrator 15.0.0, SVG Export Plug-In . SVG Version: 6.00 Build 0)  -->
<!DOCTYPE svg PUBLIC "-//W3C//DTD SVG 1.1//EN" "http://www.w3.org/Graphics/SVG/1.1/DTD/svg11.dtd">
<svg version="1.1" id="SvgjsSvg1015" xmlns:svgjs="http://svgjs.com/svgjs"
	 xmlns="http://www.w3.org/2000/svg" xmlns:xlink="http://www.w3.org/1999/xlink" x="0px" y="0px" width="75px" height="74px"
	 viewBox="0 0 75 74" enable-background="new 0 0 75 74" xml:space="preserve">
<g>
	<path id="SvgjsPath1022" fill="#F2353B" d="M57.203,55.776c0,0-20.352,0-20.405,0c-1.673,0-2.807-1.676-2.807-2.881
		c0-1.113,0.036-30.624,0-31.757c-0.037-1.152,1.96-2.915,3.293-2.915c1.331,0.036,19.881,0,19.881,0v14.879H46.352v-7.052
		c0,0-0.719-0.036-1.617,0c-0.451,0.036-1.225,0.486-1.225,1.224c-0.02,1.547,0,19.36,0,19.826c0,0.434,0.287,0.991,1.225,1.027
		c0.936,0.054,1.635,0,1.635,0v-7.63h10.834V55.776"/>
	<path id="SvgjsPath1023" fill="#0099D2" d="M39.514,18.224v22.274L27.154,40.48c0,0,0,6.388,0,6.532
		c0,0.109,0.306,1.079,1.42,1.151c0.216,0,1.529,0,1.529,0v-5.523h9.429l-0.02,13.136H20.856c0,0-2.807-0.451-3.059-3.188
		c0.036-1.043,0-31,0-31.504c0-0.486,1.08-2.861,3.149-2.861C23.177,18.259,39.514,18.224,39.514,18.224z M28.575,25.96
		c-0.773,0.036-1.42,0.773-1.42,1.224c0,0.468,0,5.919,0,5.919h2.968v-7.107C30.123,25.996,29.312,25.942,28.575,25.96z"/>
	<path id="SvgjsPath1024_1_" fill="#010101" d="M39.91,41.613h-5.919c0,5.434,0,9.824,0,10.258c0,1.169,1.133,2.86,2.771,2.878h3.13
		L39.91,41.613"/>
	<path id="SvgjsPath1025" fill="#010101" d="M39.893,40.498V18.224c-1.369,0-2.357,0-2.608,0c-1.333,0-3.33,1.763-3.293,2.915
		c0,0.648,0,10.741,0,19.359H39.893"/>
</g>
</svg>
