<?xml version="1.0" encoding="utf-8"?>
<!-- Generator: Adobe Illustrator 15.0.0, SVG Export Plug-In . SVG Version: 6.00 Build 0)  -->
<!DOCTYPE svg PUBLIC "-//W3C//DTD SVG 1.1//EN" "http://www.w3.org/Graphics/SVG/1.1/DTD/svg11.dtd">
<svg version="1.1" id="SvgjsSvg1015" xmlns:svgjs="http://svgjs.com/svgjs"
	 xmlns="http://www.w3.org/2000/svg" xmlns:xlink="http://www.w3.org/1999/xlink" x="0px" y="0px" width="75px" height="74px"
	 viewBox="0 0 75 74" enable-background="new 0 0 75 74" xml:space="preserve">
<g>
	<path id="SvgjsPath1031" fill="#FB3D54" d="M54.145,43.538c-0.013,0.013-0.023,0.024-0.047,0.036l-5.666,3.231
		c-0.025,0.012-0.038,0.024-0.062,0.035l-9.345,5.339c-0.375,0.217-0.932,0.341-1.525,0.341c-0.508,0-0.98-0.086-1.356-0.256
		L16.583,41.092c-0.121-0.084-0.17-0.157-0.182-0.181c0.024-0.05,0.097-0.158,0.291-0.268l6.222-3.534l0.957,0.556l11.573,6.61
		c1.125,0.533,2.807,0.496,3.848-0.109l9.348-5.338c0.01-0.012,0.022-0.012,0.034-0.012l2.009-1.151l1.188-0.677l6.403,3.644
		c0.219,0.12,0.303,0.229,0.327,0.265c-0.024,0.051-0.108,0.158-0.327,0.279L54.145,43.538z M53.915,35.814l0.473-0.267
		c0.012-0.012,4.163-2.372,4.163-2.372c1.113-0.642,1.113-1.683-0.011-2.324L39.303,19.92c-1.113-0.63-2.916-0.63-4.042-0.013
		L15.953,30.875c-1.017,0.592-1.077,1.537-0.158,2.179l5.072,2.892l-5.193,2.944c-0.811,0.47-1.271,1.16-1.307,1.936
		c-0.024,0.738,0.363,1.452,1.078,1.948l19.731,11.271c0.727,0.35,1.501,0.509,2.324,0.509c0.945,0,1.839-0.218,2.53-0.617
		l9.332-5.326c0.013,0,5.763-3.294,5.763-3.294c0.023-0.012,4.164-2.371,4.164-2.371c0.85-0.497,1.345-1.234,1.345-2.048
		c0-0.797-0.495-1.549-1.357-2.033L53.915,35.814z"/>
</g>
</svg>
