<?xml version="1.0" encoding="utf-8"?>
<!-- Generator: Adobe Illustrator 15.0.0, SVG Export Plug-In . SVG Version: 6.00 Build 0)  -->
<!DOCTYPE svg PUBLIC "-//W3C//DTD SVG 1.1//EN" "http://www.w3.org/Graphics/SVG/1.1/DTD/svg11.dtd">
<svg version="1.1" id="SvgjsSvg1015" xmlns:svgjs="http://svgjs.com/svgjs"
	 xmlns="http://www.w3.org/2000/svg" xmlns:xlink="http://www.w3.org/1999/xlink" x="0px" y="0px" width="75px" height="74px"
	 viewBox="0 0 75 74" enable-background="new 0 0 75 74" xml:space="preserve">
<g>
	<path fill="#F39404" d="M43.279,22.174c-2.442,0-4.83,0-6.959,1.179c-2.128,1.194-4.012,3.552-5.465,8.298
		c-0.316,1.021-0.474,1.898-0.503,2.66c-0.015,0.763,0.101,1.409,0.359,1.971c0.331,0.69,0.863,1.338,1.524,1.884
		c0.662,0.547,1.452,0.994,2.3,1.28c0.029,0.015,0.49,0.158,1.022,0.316c0.546,0.172,1.179,0.375,1.582,0.517
		c0.23,0.074,0.488,0.173,0.718,0.331c0.246,0.145,0.446,0.36,0.577,0.632c0.1,0.188,0.144,0.403,0.144,0.619
		c0,0.214-0.031,0.458-0.101,0.705c-0.202,0.646-0.504,1.062-1.079,1.322c-0.575,0.245-1.424,0.331-2.704,0.345H18.718l-2.53,7.594
		h17.113c1.61,0,4.544,0,7.376-1.322c2.834-1.31,5.553-3.94,6.687-9.204c0.434-1.97,0.304-3.58-0.401-4.846
		c-0.704-1.267-1.999-2.186-3.869-2.775c0,0-0.417-0.13-0.904-0.288c-0.489-0.158-1.051-0.331-1.352-0.417
		c-0.475-0.158-0.834-0.46-1.064-0.849c-0.217-0.373-0.274-0.848-0.159-1.323c0.13-0.503,0.445-0.892,0.893-1.165
		c0.446-0.272,1.034-0.431,1.725-0.431h9.951c0.073-0.101,0.13-0.23,0.201-0.331c1.826-2.818,4.029-5.091,6.43-6.701H43.279z"/>
</g>
</svg>
