<?xml version="1.0" encoding="utf-8"?>
<!-- Generator: Adobe Illustrator 15.0.0, SVG Export Plug-In . SVG Version: 6.00 Build 0)  -->
<!DOCTYPE svg PUBLIC "-//W3C//DTD SVG 1.1//EN" "http://www.w3.org/Graphics/SVG/1.1/DTD/svg11.dtd">
<svg version="1.1" id="SvgjsSvg1015" xmlns:svgjs="http://svgjs.com/svgjs"
	 xmlns="http://www.w3.org/2000/svg" xmlns:xlink="http://www.w3.org/1999/xlink" x="0px" y="0px" width="75px" height="74px"
	 viewBox="0 0 75 74" enable-background="new 0 0 75 74" xml:space="preserve">
<g>
	<path id="SvgjsPath1014" fill="#FFA115" d="M54.912,42.345c0,0,0-23.175-0.062-23.632c-0.044-0.473,1.28-2.759-17.153-2.927h-0.396
		c-18.433,0.167-17.09,2.454-17.151,2.927c-0.062,0.458-0.062,23.679-0.062,23.679c0.808,6.922,17.214,15.765,17.214,15.765
		s0.137,0.137,0.396-0.017C37.973,58.003,54.104,49.282,54.912,42.345z M36.051,61.083c-0.134-0.063-0.259-0.132-0.377-0.206
		c-0.159-0.087-0.38-0.203-0.659-0.358c-0.61-0.351-1.296-0.762-2.028-1.204c-2.104-1.266-4.193-2.651-6.174-4.116
		c-3.218-2.396-5.779-4.757-7.502-7.089c-1.311-1.769-2.135-3.537-2.349-5.354l-0.015-0.182v-0.183c0-0.047,0-0.047,0-0.276
		c0-0.215,0-0.459,0-0.747c0-0.807,0-1.706,0-2.683c0-2.774,0-5.551,0-8.143c0.014-7.586,0.026-10.865,0.06-11.897
		c-0.003-0.07-0.011-0.145,0.001-0.238c0-0.213,0.015-0.411,0.062-0.64c0.091-0.549,0.319-1.083,0.64-1.555
		c0.595-0.854,1.449-1.433,2.562-1.875c2.668-1.052,7.928-1.631,17-1.723h0.426c9.103,0.091,14.378,0.671,17.031,1.723
		c1.111,0.442,1.968,1.021,2.562,1.875c0.335,0.472,0.55,1.006,0.641,1.555c0.046,0.229,0.062,0.427,0.076,0.64
		c0,0.112,0,0.198-0.012,0.303c0.032,1.096,0.045,4.378,0.058,11.804c0,2.591,0,5.366,0,8.141c0,0.975,0,1.876,0,2.684
		c0,0.273,0,0.532,0,0.747c0,0.213,0,0.213,0,0.259v0.198l-0.017,0.184c-0.211,1.753-0.973,3.46-2.209,5.184
		c-1.723,2.392-4.345,4.819-7.639,7.272c-1.952,1.448-4.026,2.805-6.1,4.07c-0.731,0.442-1.417,0.854-2.042,1.205
		c-0.217,0.122-0.414,0.229-0.597,0.335c-0.105,0.062-0.243,0.137-0.229,0.122C38.201,61.495,37.043,61.525,36.051,61.083z
		 M17.01,18.557c0.003-0.096,0.008-0.167,0.012-0.217C17.013,18.42,17.011,18.49,17.01,18.557z M57.989,18.549
		c-0.001-0.067-0.004-0.134-0.01-0.208C57.983,18.39,57.985,18.458,57.989,18.549z"/>
	<path id="SvgjsPath1015" fill="#FFA115" d="M46.193,27.714c0.598-0.596,1.561-0.596,2.155,0l0,0c0.597,0.596,0.597,1.562,0,2.156
		L36.491,41.728c-0.597,0.597-1.56,0.597-2.156,0l0,0c-0.595-0.596-0.595-1.558,0-2.155L46.193,27.714z M28.959,38.979
		c-0.595-0.596-0.595-1.56,0-2.155l0,0c0.596-0.597,1.561-0.597,2.157,0l4.313,4.312c0.595,0.595,0.595,1.56,0,2.155l0,0
		c-0.596,0.596-1.561,0.596-2.157,0L28.959,38.979z"/>
</g>
</svg>
