<?xml version="1.0" encoding="utf-8"?>
<!-- Generator: Adobe Illustrator 15.0.0, SVG Export Plug-In . SVG Version: 6.00 Build 0)  -->
<!DOCTYPE svg PUBLIC "-//W3C//DTD SVG 1.1//EN" "http://www.w3.org/Graphics/SVG/1.1/DTD/svg11.dtd">
<svg version="1.1" id="SvgjsSvg1000" xmlns:svgjs="http://svgjs.com/svgjs"
	 xmlns="http://www.w3.org/2000/svg" xmlns:xlink="http://www.w3.org/1999/xlink" x="0px" y="0px" width="75px" height="74px"
	 viewBox="0 0 75 74" enable-background="new 0 0 75 74" xml:space="preserve">
<g>
	<path id="SvgjsPath1014" fill="#E89B0B" d="M10,37c0-14.912,12.312-27,27.5-27C52.688,10,65,22.088,65,37S52.688,64,37.5,64
		C22.312,64,10,51.912,10,37z M37.5,62C51.031,62,62,51.031,62,37.5S51.031,13,37.5,13C23.969,13,13,23.969,13,37.5
		S23.969,62,37.5,62z M38.66,30.53l-4.41,6.45c-0.311,0.449-0.32,0.77-0.01,1.22l4.81,7.188h-6.04l-2.92-4.828l-3.32,4.828h-5.56
		l4.78-7.261c0.28-0.42,0.25-0.69-0.03-1.08l-4.47-6.521h6.11c0,0,1.78,2.921,2.5,4.229c0.67-1.03,2.95-4.229,2.95-4.229h5.61V30.53
		z M47.54,30.52h2.47c0.43-0.02,0.57,0.19,0.561,0.61c-0.01,0.95-0.01,1.89,0,2.84c0.012,0.4-0.158,0.57-0.541,0.562H47.54v6.25
		c0.01,0.55,0.38,0.92,0.94,0.96c0.289,0.01,0.6,0.02,0.89-0.021c1.08-0.14,1.08-0.148,1.17,0.98c0.06,0.688,0.14,1.39,0.16,2.09
		c0,0.189-0.19,0.561-0.31,0.568c-1.66,0.109-3.33,0.371-4.973,0.211c-1.96-0.199-3.102-1.562-3.188-3.631V34.53h-1.5
		c-0.393,0.02-0.541-0.181-0.541-0.57c0.021-0.95,0.021-1.89,0-2.83c0-0.44,0.16-0.59,0.58-0.61h1.461v-1.51
		c-0.051-0.898,0.09-1.449,0.938-1.84c1.432-0.67,2.818-1.48,4.37-2.31L47.54,30.52L47.54,30.52z"/>
</g>
</svg>
