<?xml version="1.0" encoding="utf-8"?>
<!-- Generator: Adobe Illustrator 15.0.0, SVG Export Plug-In . SVG Version: 6.00 Build 0)  -->
<!DOCTYPE svg PUBLIC "-//W3C//DTD SVG 1.1//EN" "http://www.w3.org/Graphics/SVG/1.1/DTD/svg11.dtd">
<svg version="1.1" id="SvgjsSvg1015" xmlns:svgjs="http://svgjs.com/svgjs"
	 xmlns="http://www.w3.org/2000/svg" xmlns:xlink="http://www.w3.org/1999/xlink" x="0px" y="0px" width="75px" height="74px"
	 viewBox="0 0 75 74" enable-background="new 0 0 75 74" xml:space="preserve">
<g>
	<path id="SvgjsPath1025" d="M31.165,46.825c0,3.05-0.8,5.15-2.21,5.91c-1,0.569-3.22,0.76-6.83,0.76c-2.82,0-4.83-0.381-5.63-1.33
		c-0.81-0.76-1.21-2.67-1.21-5.34v-7.25h6.84v6.869c0,1.521,0.6,1.711,1.2,1.711c0.4,0,1.01-0.19,1.01-1.141v-26.51h6.83V46.825z
		 M46.445,25.655h-3.41v27.65h-6.84v-27.65h-3.42v-5.15h13.67V25.655z M59.715,53.305h-10.85v-32.8h6.83v27.46h4.02V53.305z"/>
</g>
</svg>
