<?xml version="1.0" encoding="utf-8"?>
<!-- Generator: Adobe Illustrator 15.0.0, SVG Export Plug-In . SVG Version: 6.00 Build 0)  -->
<!DOCTYPE svg PUBLIC "-//W3C//DTD SVG 1.1//EN" "http://www.w3.org/Graphics/SVG/1.1/DTD/svg11.dtd">
<svg version="1.1" id="SvgjsSvg1015" xmlns:svgjs="http://svgjs.com/svgjs"
	 xmlns="http://www.w3.org/2000/svg" xmlns:xlink="http://www.w3.org/1999/xlink" x="0px" y="0px" width="75px" height="74px"
	 viewBox="0 0 75 74" enable-background="new 0 0 75 74" xml:space="preserve">
<g>
	<path id="SvgjsPath1010" d="M51.215,55.42c-2.199-1.801-5.17-2.961-8.07-4c-3.969-1.631-8.208-3.279-11.289-5.609
		c-3.7-3.08-5.45-6.721-5.65-11.21c0.2-4.21,1.9-7.729,4.84-10.42c3.9-2.71,9.371-4.229,16.142-4c1.84-0.229,3.619-0.11,5.641,0
		c-0.23,0.14-0.092,0.061,0,0c0.029-0.21,0-0.36,0-0.8c-4.361-3.5-9.852-5.61-15.331-5.61c-6.42,0-12.24,2.41-16.939,6.41
		c-4.04,4.78-6.45,10.62-6.45,16.82c0,6.199,2.41,12.039,6.45,16.82c4.699,3.99,10.51,6.41,16.939,6.41
		C42.256,60.23,47.006,58.65,51.215,55.42C51.105,55.609,51.154,55.52,51.215,55.42C51.154,55.311,51.105,55.199,51.215,55.42
		 M60.895,35.399C60.785,35.35,60.734,35.27,60.895,35.399c-5.188-4.04-9.209-5.609-13.709-5.609c-2.979,0-4.979,0.489-6.461,1.6
		c-1,0.69-1.608,1.851-1.608,3.21c0,3.82,4.989,5.57,10.489,7.199c3.271,1.432,6.351,2.5,8.869,4.012c0.361-0.012,0.41,0,0.812,0
		c-0.302,0-0.261-0.012,0,0c-0.132-0.051-0.062-0.121,0,0c1.062-2.801,1.608-5.521,1.608-8.012
		C60.885,36.84,60.855,36.14,60.895,35.399"/>
</g>
</svg>
