<?xml version="1.0" encoding="utf-8"?>
<!-- Generator: Adobe Illustrator 15.0.0, SVG Export Plug-In . SVG Version: 6.00 Build 0)  -->
<!DOCTYPE svg PUBLIC "-//W3C//DTD SVG 1.1//EN" "http://www.w3.org/Graphics/SVG/1.1/DTD/svg11.dtd">
<svg version="1.1" id="SvgjsSvg1015" xmlns:svgjs="http://svgjs.com/svgjs"
	 xmlns="http://www.w3.org/2000/svg" xmlns:xlink="http://www.w3.org/1999/xlink" x="0px" y="0px" width="75px" height="74px"
	 viewBox="0 0 75 74" enable-background="new 0 0 75 74" xml:space="preserve">
<g>
	<path id="SvgjsPath1019" d="M58.186,21.57c2.621,0,4.739,2.16,4.739,4.83v16.11c0,2.67-2.118,4.83-4.739,4.83h-14.84l2.041,5.09
		l-8.962-5.09h-19.61c-2.62,0-4.74-2.16-4.74-4.83V26.4c-0.02-2.65,2.1-4.83,4.721-4.83H58.186z M14.615,25.961
		c-0.29,0.379-0.399,0.869-0.34,1.42c1.229,7.949,2.37,13.311,3.43,16.08c0.42,1.02,0.899,1.51,1.46,1.469
		c0.87-0.068,1.91-1.299,3.141-3.688c0.64-1.359,1.64-3.392,2.99-6.109c1.129,4.011,2.659,7.021,4.6,9.029
		c0.539,0.58,1.1,0.83,1.64,0.79c0.479-0.04,0.851-0.301,1.101-0.771c0.209-0.398,0.289-0.859,0.25-1.389
		c-0.121-1.932,0.06-4.621,0.58-8.08c0.539-3.561,1.209-6.121,2.02-7.65c0.17-0.32,0.23-0.641,0.21-1.02
		c-0.04-0.49-0.25-0.891-0.649-1.211c-0.391-0.31-0.83-0.46-1.311-0.42c-0.6,0.04-1.061,0.34-1.37,0.93
		c-1.29,2.4-2.2,6.28-2.74,11.66c-0.79-2.029-1.46-4.43-1.979-7.25c-0.23-1.25-0.791-1.84-1.7-1.779
		c-0.63,0.039-1.149,0.47-1.56,1.27l-4.561,8.84c-0.74-3.07-1.45-6.82-2.09-11.25c-0.15-1.109-0.75-1.609-1.811-1.529
		C15.335,25.34,14.905,25.551,14.615,25.961z M55.984,26.83c-0.399-0.09-0.77-0.13-1.119-0.13c-2,0-3.62,1.06-4.891,3.181
		c-1.08,1.799-1.621,3.789-1.621,5.979c0,1.63,0.33,3.031,1,4.19c0.75,1.341,1.852,2.14,3.32,2.459
		c0.4,0.091,0.771,0.132,1.131,0.132c2.01,0,3.629-1.062,4.879-3.181c1.08-1.819,1.621-3.82,1.621-6c0-1.65-0.33-3.031-0.99-4.181
		C58.564,27.95,57.466,27.141,55.984,26.83z M55.115,38.291c-0.61,0.549-1.17,0.789-1.69,0.68c-0.5-0.109-0.909-0.551-1.22-1.381
		c-0.25-0.649-0.38-1.31-0.38-1.93c0-0.529,0.04-1.061,0.149-1.54c0.18-0.87,0.539-1.72,1.101-2.521
		c0.688-1.039,1.409-1.469,2.159-1.319c0.5,0.11,0.92,0.55,1.23,1.38c0.25,0.66,0.369,1.311,0.369,1.93
		c0,0.551-0.061,1.08-0.141,1.57C56.404,36.551,55.887,37.59,55.115,38.291z M42.945,26.83c-0.391-0.09-0.771-0.13-1.12-0.13
		c-1.99,0-3.62,1.06-4.88,3.181c-1.091,1.799-1.63,3.789-1.63,5.979c0,1.63,0.34,3.031,1,4.19c0.75,1.341,1.85,2.14,3.33,2.459
		c0.391,0.091,0.771,0.132,1.119,0.132c2.021,0,3.641-1.062,4.891-3.181c1.08-1.819,1.621-3.82,1.621-6c0-1.65-0.33-3.031-1-4.181
		C45.525,27.95,44.404,27.141,42.945,26.83z M42.075,38.291c-0.601,0.549-1.16,0.789-1.681,0.68c-0.5-0.109-0.92-0.551-1.229-1.381
		c-0.25-0.649-0.369-1.31-0.369-1.93c0-0.529,0.039-1.061,0.14-1.54c0.189-0.87,0.541-1.72,1.101-2.521
		c0.69-1.039,1.42-1.469,2.17-1.319c0.489,0.11,0.91,0.55,1.22,1.38c0.25,0.66,0.381,1.311,0.381,1.93
		c0,0.551-0.051,1.08-0.149,1.57C43.365,36.551,42.846,37.59,42.075,38.291z"/>
</g>
</svg>
