<?xml version="1.0" encoding="utf-8"?>
<!-- Generator: Adobe Illustrator 15.0.0, SVG Export Plug-In . SVG Version: 6.00 Build 0)  -->
<!DOCTYPE svg PUBLIC "-//W3C//DTD SVG 1.1//EN" "http://www.w3.org/Graphics/SVG/1.1/DTD/svg11.dtd">
<svg version="1.1" id="SvgjsSvg1015" xmlns:svgjs="http://svgjs.com/svgjs"
	 xmlns="http://www.w3.org/2000/svg" xmlns:xlink="http://www.w3.org/1999/xlink" x="0px" y="0px" width="75px" height="74px"
	 viewBox="0 0 75 74" enable-background="new 0 0 75 74" xml:space="preserve">
<g>
	<path id="SvgjsPath1016" d="M10,37c0-14.912,12.312-27,27.5-27C52.688,10,65,22.088,65,37S52.688,64,37.5,64
		C22.312,64,10,51.912,10,37z M37.5,62C51.031,62,62,51.031,62,37.5S51.031,13,37.5,13C23.969,13,13,23.969,13,37.5
		S23.969,62,37.5,62z M38.66,30.53l-4.41,6.45c-0.31,0.45-0.32,0.77-0.01,1.22l4.81,7.19h-6.04l-2.92-4.83l-3.32,4.83h-5.56
		l4.78-7.262c0.28-0.42,0.25-0.69-0.03-1.08l-4.47-6.52h6.11c0,0,1.78,2.92,2.5,4.23c0.67-1.03,2.95-4.23,2.95-4.23h5.61V30.53z
		 M47.54,30.52h2.47c0.43-0.02,0.57,0.19,0.561,0.61c-0.01,0.95-0.01,1.89,0,2.84c0.011,0.4-0.159,0.57-0.541,0.561H47.54v6.25
		c0.01,0.551,0.38,0.921,0.94,0.961c0.289,0.01,0.6,0.02,0.89-0.021c1.08-0.141,1.08-0.15,1.17,0.979c0.06,0.69,0.14,1.39,0.16,2.09
		c0,0.19-0.19,0.56-0.31,0.569c-1.66,0.11-3.33,0.371-4.972,0.211c-1.96-0.2-3.101-1.562-3.188-3.631v-7.411h-1.5
		c-0.392,0.02-0.541-0.18-0.541-0.57c0.021-0.95,0.021-1.89,0-2.83c0-0.44,0.16-0.59,0.58-0.61h1.461v-1.51
		c-0.051-0.9,0.09-1.45,0.938-1.84c1.431-0.67,2.819-1.48,4.37-2.31L47.54,30.52L47.54,30.52z"/>
</g>
</svg>
