<?xml version="1.0" encoding="utf-8"?>
<svg version="1.1" id="Layer_1" xmlns="http://www.w3.org/2000/svg" xmlns:xlink="http://www.w3.org/1999/xlink" x="0px" y="0px"
	 width="16" height="16" viewBox="0 0 16 16" enable-background="new 0 0 16 16" xml:space="preserve">
<path d="M15.583,13.95l-3.723-3.793c0.716-1.043,1.134-2.305,1.134-3.666c0-3.584-2.906-6.49-6.491-6.49s-6.49,2.906-6.49,6.49
	c0,3.585,2.906,6.49,6.49,6.49c1.374,0,2.647-0.426,3.697-1.155l3.747,3.768c0.523,0.523,1.191,0.554,1.715,0.029
	C16.184,15.101,16.017,14.435,15.583,13.95z M6.511,10.979C4.019,10.979,2,8.96,2,6.469c0-2.492,2.02-4.511,4.511-4.511
	c2.492,0,4.511,2.02,4.511,4.511C11.021,8.96,9.003,10.979,6.511,10.979z"/>
</svg>
