<?xml version="1.0" encoding="UTF-8" standalone="no"?>
<svg
  xmlns="http://www.w3.org/2000/svg"
  xmlns:xlink="http://www.w3.org/1999/xlink"
  width="32"
  height="32">
  <symbol id="icon-download-32" viewBox="0 0 32 32"
    preserveAspectRatio="xMidYMin slice" width="100%">
    <path class="path1" fill="currentColor"
      d="M16,0A16,16,0,1,0,32,16,16,16,0,0,0,16,0Zm0,31A15,15,0,1,1,31,16,15,15,0,0,1,16,31Z"/>
    <path class="path2" fill="currentColor"
      d="m 16.5,25 c -1.912883,-1.991353 -3.890956,-3.922206 -5.84375,-5.875 l 0.6875,-0.6875 4.65625,4.65625 0,-16.3125 1,0 0,16.3125 4.65625,-4.65625 0.6875,0.6875 C 20.417419,21.1039 18.392472,22.988714 16.5,25 z"/>
  </symbol>
  <use xlink:href="#icon-download-32"/>
</svg>