<?xml version="1.0" encoding="utf-8"?>
<!-- Generator: Adobe Illustrator 15.0.0, SVG Export Plug-In . SVG Version: 6.00 Build 0)  -->
<!DOCTYPE svg PUBLIC "-//W3C//DTD SVG 1.1//EN" "http://www.w3.org/Graphics/SVG/1.1/DTD/svg11.dtd">
<svg version="1.1" id="Layer_1" xmlns="http://www.w3.org/2000/svg" xmlns:xlink="http://www.w3.org/1999/xlink" x="0px" y="0px"
	 width="512px" height="512px" viewBox="0 0 512 512" enable-background="new 0 0 512 512" xml:space="preserve">
<linearGradient id="App-Icon-Shape-Copy_1_" gradientUnits="userSpaceOnUse" x1="-82.2917" y1="1.6704" x2="-82.2917" y2="0.5847" gradientTransform="matrix(480 0 0 480 39756.1328 -265)">
	<stop  offset="0" style="stop-color:#2780EF"/>
	<stop  offset="1" style="stop-color:#2AC4F8"/>
</linearGradient>
<path id="App-Icon-Shape-Copy" d="M381.625,16C451,16,496,61,496,130.375v251.25
	C496,451,451,496,381.625,496h-251.25C61,496,16,451,16,381.625v-251.25C16,61,61,16,130.375,16H381.625z"/>
<g>
	<path fill="#FFFFFF" d="M252.495,251.009v-94.374v-4.698h9.396v4.698v94.375h93.475h4.697v9.396h-4.697h-93.475v94.959v4.697
		h-9.396v-4.697v-94.959h-95.86h-4.697v-9.396h4.696L252.495,251.009L252.495,251.009z"/>
</g>
</svg>
