<?xml version="1.0" encoding="utf-8"?>
<!-- Generator: Adobe Illustrator 15.0.0, SVG Export Plug-In . SVG Version: 6.00 Build 0)  -->
<!DOCTYPE svg PUBLIC "-//W3C//DTD SVG 1.1//EN" "http://www.w3.org/Graphics/SVG/1.1/DTD/svg11.dtd">
<svg version="1.1" id="SvgjsSvg1015" xmlns:svgjs="http://svgjs.com/svgjs"
	 xmlns="http://www.w3.org/2000/svg" xmlns:xlink="http://www.w3.org/1999/xlink" x="0px" y="0px" width="75px" height="74px"
	 viewBox="0 0 75 74" enable-background="new 0 0 75 74" xml:space="preserve">
<path id="Fill-1" d="M57.608,44.72c-0.37,1.164-0.905,2.199-1.601,3.074c-0.684,0.866-1.533,1.562-2.532,2.065
	c-0.982,0.506-2.142,0.765-3.438,0.765c-1.291,0-2.434-0.254-3.388-0.756c-0.966-0.51-1.771-1.206-2.396-2.074
	c-0.648-0.889-1.137-1.935-1.467-3.097c-0.334-1.181-0.503-2.433-0.503-3.719c0-1.182,0.157-2.379,0.464-3.544
	c0.298-1.152,0.772-2.201,1.401-3.119c0.621-0.898,1.429-1.647,2.414-2.217c0.966-0.561,2.136-0.849,3.474-0.849
	c2.473,0,4.398,0.806,5.889,2.467c1.484,1.655,2.24,4.097,2.24,7.262C58.171,42.286,57.98,43.545,57.608,44.72L57.608,44.72z
	 M58.183,21.461v12.146c-0.574-0.921-1.264-1.731-2.124-2.416c-1.579-1.256-3.604-1.896-6.016-1.896
	c-1.57,0-2.988,0.328-4.207,0.976c-1.218,0.64-2.244,1.511-3.061,2.588c-0.803,1.065-1.424,2.316-1.849,3.718
	c-0.414,1.39-0.63,2.874-0.63,4.405c0,1.639,0.222,3.179,0.652,4.571c0.438,1.407,1.086,2.641,1.926,3.667
	c0.844,1.035,1.876,1.857,3.078,2.437c1.207,0.585,2.578,0.883,4.084,0.883c2.328,0,4.324-0.641,5.916-1.896
	c0.899-0.709,1.655-1.548,2.229-2.508v3.923h1.92V21.461H58.183z M21.834,40.536l6.549-16.069l6.324,16.069H21.834z M27.458,21.461
	L14.897,52.059h2.165l3.975-9.632h14.455l3.934,9.632h2.158L29.327,21.461H27.458z"/>
</svg>
