<?xml version="1.0" encoding="utf-8"?>
<!-- Generator: Adobe Illustrator 15.0.0, SVG Export Plug-In . SVG Version: 6.00 Build 0)  -->
<!DOCTYPE svg PUBLIC "-//W3C//DTD SVG 1.1//EN" "http://www.w3.org/Graphics/SVG/1.1/DTD/svg11.dtd">
<svg version="1.1" id="SvgjsSvg1015" xmlns:svgjs="http://svgjs.com/svgjs"
	 xmlns="http://www.w3.org/2000/svg" xmlns:xlink="http://www.w3.org/1999/xlink" x="0px" y="0px" width="75px" height="74px"
	 viewBox="0 0 75 74" enable-background="new 0 0 75 74" xml:space="preserve">
<g>
	<path id="Combined-Shape_1_" fill="#363636" d="M36.268-64.609c-0.27-0.125-0.619-0.338-0.988-0.55
		c-0.609-0.352-1.284-0.754-2.012-1.201c-2.08-1.276-4.16-2.669-6.112-4.135c-3.171-2.382-5.701-4.732-7.38-7.039
		c-1.251-1.72-2.031-3.42-2.231-5.137l-0.018-0.157v-0.159c0-0.047,0-0.047,0-0.268c0-0.221,0-0.472,0-0.76
		c0-0.818,0-1.728,0.001-2.708c0.002-2.803,0.003-5.606,0.006-8.221c0.011-8.612,0.023-11.883,0.071-12.274
		c-0.016,0.131-0.02,0.233-0.019,0.328c-0.004-0.091-0.007-0.173-0.004-0.288c0.004-0.182,0.021-0.364,0.055-0.557
		c0.086-0.48,0.273-0.944,0.562-1.367c0.52-0.756,1.288-1.294,2.315-1.706c2.573-1.03,7.777-1.608,16.758-1.695h0.432
		c9.004,0.086,14.208,0.665,16.782,1.695c1.027,0.412,1.798,0.949,2.317,1.706c0.29,0.423,0.475,0.887,0.562,1.367
		c0.036,0.192,0.053,0.375,0.053,0.557c0.006,0.115,0,0.197-0.003,0.306c0.003-0.113-0.003-0.215-0.02-0.348
		c0.05,0.393,0.062,3.658,0.072,12.257c0.003,2.61,0.006,5.41,0.006,8.208c0,0.977,0,1.887,0,2.703c0,0.285,0,0.542,0,0.759
		c0,0.221,0,0.221,0,0.268v0.156l-0.017,0.157c-0.192,1.667-0.927,3.317-2.105,4.981c-1.675,2.373-4.252,4.779-7.508,7.226
		c-1.923,1.446-3.979,2.82-6.033,4.082c-0.726,0.447-1.401,0.849-2.021,1.206c-0.218,0.123-0.833,0.469-0.82,0.463
		C38.095-64.258,37.104-64.221,36.268-64.609z M54.866-83.022c0,0,0-23.39-0.056-23.863c-0.062-0.475,1.272-2.771-17.106-2.948
		h-0.406c-18.38,0.177-17.047,2.474-17.104,2.948c-0.059,0.473-0.059,23.899-0.059,23.899c0.811,6.994,17.162,15.92,17.162,15.92
		s0.145,0.131,0.406-0.02C37.965-67.231,54.057-76.031,54.866-83.022z"/>
	<ellipse id="Oval" fill="#363636" cx="37.475" cy="-90.762" rx="9.694" ry="9.906"/>
	<path id="Rectangle-26" fill="#FFFFFF" d="M38.221-95.36L38.221-95.36c0.34,0,0.615,0.275,0.615,0.614v7.857
		c0,0.338-0.275,0.614-0.615,0.614l0,0c-0.34,0-0.614-0.276-0.614-0.614v-7.857C37.606-95.085,37.881-95.36,38.221-95.36z"/>
	<path id="Rectangle-26-Copy" fill="#FFFFFF" d="M34.526-91.01L34.526-91.01c0.34,0,0.614,0.276,0.614,0.616v2.735
		c0,0.34-0.274,0.616-0.614,0.616l0,0c-0.341,0-0.615-0.275-0.615-0.616v-2.735C33.911-90.734,34.186-91.01,34.526-91.01z"/>
</g>
<g>
	<path id="Combined-Shape_2_" d="M36.245,61.207c-0.271-0.129-0.627-0.344-1.003-0.561c-0.62-0.357-1.306-0.766-2.044-1.22
		c-2.114-1.297-4.229-2.713-6.211-4.202c-3.225-2.421-5.796-4.812-7.503-7.155c-1.271-1.749-2.064-3.477-2.268-5.222l-0.018-0.159
		v-0.162c0-0.048,0-0.048,0-0.272c0-0.224,0-0.479,0-0.771c0-0.831,0-1.757,0.001-2.753c0.001-2.849,0.002-5.699,0.005-8.357
		c0.011-8.753,0.024-12.078,0.072-12.475c-0.015,0.133-0.02,0.237-0.018,0.333c-0.004-0.093-0.007-0.176-0.004-0.292
		c0.004-0.185,0.021-0.371,0.055-0.566c0.088-0.489,0.278-0.959,0.572-1.389c0.528-0.77,1.31-1.316,2.354-1.734
		c2.615-1.047,7.906-1.635,17.033-1.723h0.44c9.152,0.088,14.441,0.675,17.059,1.723c1.045,0.418,1.828,0.965,2.355,1.734
		c0.295,0.43,0.482,0.9,0.57,1.389c0.037,0.196,0.055,0.381,0.055,0.566c0.006,0.116,0,0.199-0.004,0.31
		c0.004-0.114-0.002-0.218-0.02-0.353c0.051,0.398,0.062,3.718,0.074,12.458c0.004,2.654,0.006,5.5,0.006,8.344
		c0,0.993,0,1.918,0,2.747c0,0.29,0,0.551,0,0.771c0,0.225,0,0.225,0,0.272v0.159l-0.018,0.159
		c-0.195,1.694-0.941,3.372-2.141,5.062c-1.701,2.412-4.32,4.859-7.631,7.346c-1.955,1.471-4.043,2.866-6.131,4.149
		c-0.74,0.453-1.426,0.862-2.055,1.225c-0.223,0.126-0.848,0.478-0.836,0.471C38.104,61.564,37.097,61.601,36.245,61.207z
		 M55.152,42.489c0,0,0-23.775-0.057-24.256c-0.064-0.482,1.293-2.816-17.389-2.997h-0.413c-18.683,0.181-17.328,2.515-17.387,2.997
		c-0.059,0.481-0.059,24.293-0.059,24.293c0.825,7.11,17.446,16.183,17.446,16.183s0.148,0.134,0.413-0.02
		C37.97,58.542,54.328,49.597,55.152,42.489z"/>
	<path id="Oval_1_" d="M37.473,24.552c5.441,0,9.855,4.509,9.855,10.07c0,5.561-4.414,10.07-9.855,10.07
		c-5.44,0-9.852-4.51-9.852-10.07C27.621,29.061,32.033,24.552,37.473,24.552z"/>
	<path id="Rectangle-26_1_" fill="#FFFFFF" d="M38.23,29.949L38.23,29.949c0.348,0,0.625,0.279,0.625,0.624v7.987
		c0,0.343-0.277,0.624-0.625,0.624l0,0c-0.345,0-0.623-0.281-0.623-0.624v-7.987C37.607,30.229,37.886,29.949,38.23,29.949z"/>
	<path id="Rectangle-26-Copy_1_" fill="#FFFFFF" d="M34.477,34.37L34.477,34.37c0.344,0,0.625,0.281,0.625,0.626v2.779
		c0,0.347-0.282,0.627-0.625,0.627l0,0c-0.345,0-0.627-0.28-0.627-0.627v-2.779C33.85,34.651,34.131,34.37,34.477,34.37z"/>
</g>
</svg>
