<?xml version="1.0" encoding="utf-8"?>
<!-- Generator: Adobe Illustrator 15.0.0, SVG Export Plug-In . SVG Version: 6.00 Build 0)  -->
<!DOCTYPE svg PUBLIC "-//W3C//DTD SVG 1.1//EN" "http://www.w3.org/Graphics/SVG/1.1/DTD/svg11.dtd">
<svg version="1.1" id="SvgjsSvg1015" xmlns:svgjs="http://svgjs.com/svgjs"
	 xmlns="http://www.w3.org/2000/svg" xmlns:xlink="http://www.w3.org/1999/xlink" x="0px" y="0px" width="75px" height="74px"
	 viewBox="0 0 75 74" enable-background="new 0 0 75 74" xml:space="preserve">
<path id="Fill-1" d="M58.648,41.231l-4.2,2.392c-0.019,0.01-0.036,0.02-0.053,0.029l-5.772,3.279
	c-0.018,0.01-0.037,0.021-0.057,0.032l-9.511,5.403c-0.391,0.225-0.956,0.349-1.555,0.349c-0.514,0-1.003-0.092-1.383-0.261
	L16.205,41.138c-0.115-0.085-0.165-0.155-0.181-0.186c0.021-0.042,0.103-0.149,0.298-0.264l6.328-3.572l0.978,0.555l11.781,6.693
	c1.146,0.535,2.852,0.498,3.922-0.109l9.509-5.403c0.013-0.006,0.025-0.012,0.037-0.02l2.042-1.161l1.205-0.685l6.524,3.685
	c0.22,0.125,0.307,0.237,0.329,0.281C58.955,40.998,58.868,41.107,58.648,41.231 M54.206,35.802l0.483-0.273
	c0.01-0.006,4.232-2.407,4.232-2.407c1.137-0.646,1.137-1.702-0.004-2.345L39.333,19.711c-1.129-0.637-2.966-0.642-4.108-0.017
	l-19.65,11.1c-1.041,0.605-1.097,1.562-0.166,2.207l5.157,2.931l-5.273,2.979c-0.83,0.483-1.304,1.18-1.335,1.965
	c-0.03,0.75,0.371,1.467,1.101,1.969L35.135,54.26c0.735,0.349,1.529,0.511,2.366,0.511c0.96,0,1.875-0.22,2.578-0.62l9.49-5.394
	c0.016-0.006,5.876-3.337,5.876-3.337c0.016-0.01,4.227-2.405,4.227-2.405c0.874-0.493,1.372-1.247,1.372-2.066
	c0-0.817-0.503-1.569-1.377-2.062L54.206,35.802z"/>
</svg>
