<?xml version="1.0" encoding="utf-8"?>
<!-- Generator: Adobe Illustrator 15.0.0, SVG Export Plug-In . SVG Version: 6.00 Build 0)  -->
<!DOCTYPE svg PUBLIC "-//W3C//DTD SVG 1.1//EN" "http://www.w3.org/Graphics/SVG/1.1/DTD/svg11.dtd">
<svg version="1.1" id="SvgjsSvg1015" xmlns:svgjs="http://svgjs.com/svgjs"
	 xmlns="http://www.w3.org/2000/svg" xmlns:xlink="http://www.w3.org/1999/xlink" x="0px" y="0px" width="75px" height="74px"
	 viewBox="0 0 75 74" enable-background="new 0 0 75 74" xml:space="preserve">
<g>
	<path id="Combined-Shape" d="M45.427,23.35c0-1.023,0.823-1.861,1.837-1.861c1.004,0,1.829,0.838,1.829,1.861v27.35
		c0,1.026-0.825,1.861-1.829,1.861c-1.014,0-1.837-0.835-1.837-1.861V23.35z M55.098,29.416c0-1.024,0.823-1.862,1.829-1.862
		c1.01,0,1.835,0.838,1.835,1.862v15.218c0,1.025-0.825,1.865-1.835,1.865c-1.006,0-1.829-0.84-1.829-1.865V29.416z M16.238,29.416
		c0-1.024,0.825-1.862,1.834-1.862s1.833,0.838,1.833,1.862v15.218c0,1.025-0.824,1.865-1.833,1.865s-1.834-0.84-1.834-1.865V29.416
		z M25.904,23.35c0-1.023,0.825-1.861,1.835-1.861c1.008,0,1.833,0.838,1.833,1.861v27.35c0,1.026-0.825,1.861-1.833,1.861
		c-1.01,0-1.835-0.835-1.835-1.861V23.35z M35.761,14.062c0-1.023,0.825-1.861,1.834-1.861c1.01,0,1.833,0.838,1.833,1.861v45.875
		c0,1.023-0.823,1.861-1.833,1.861c-1.009,0-1.834-0.838-1.834-1.861V14.062z"/>
</g>
</svg>
