<?xml version="1.0" encoding="utf-8"?>
<!-- Generator: Adobe Illustrator 15.0.0, SVG Export Plug-In . SVG Version: 6.00 Build 0)  -->
<!DOCTYPE svg PUBLIC "-//W3C//DTD SVG 1.1//EN" "http://www.w3.org/Graphics/SVG/1.1/DTD/svg11.dtd">
<svg version="1.1" id="SvgjsSvg1015" xmlns:svgjs="http://svgjs.com/svgjs"
	 xmlns="http://www.w3.org/2000/svg" xmlns:xlink="http://www.w3.org/1999/xlink" x="0px" y="0px" width="75px" height="74px"
	 viewBox="0 0 75 74" enable-background="new 0 0 75 74" xml:space="preserve">
<g>
	<path id="Combined-Shape" d="M19.988,52.572l14.15-6.887c1.026,0.898,2.379,1.441,3.863,1.441c3.208,0,5.809-2.547,5.809-5.695
		c0-0.66-0.115-1.291-0.324-1.883l15.748-13.194c0.793,0.393,1.694,0.614,2.644,0.614c3.237,0,5.864-2.573,5.864-5.749
		c0-3.174-2.627-5.748-5.864-5.748c-3.241,0-5.87,2.574-5.87,5.748c0,0.576,0.088,1.131,0.247,1.655L40.333,36.214
		c-0.71-0.308-1.503-0.477-2.332-0.477c-3.208,0-5.809,2.55-5.809,5.694c0,0.127,0.006,0.248,0.011,0.373l-14.072,6.848
		c-1.035-0.943-2.423-1.516-3.946-1.516c-3.208,0-5.809,2.549-5.809,5.697c0,3.143,2.601,5.693,5.809,5.693
		c3.207,0,5.809-2.551,5.809-5.693C19.994,52.742,19.993,52.658,19.988,52.572z"/>
</g>
</svg>
