<?xml version="1.0" encoding="utf-8"?>
<!-- Generator: Adobe Illustrator 15.0.0, SVG Export Plug-In . SVG Version: 6.00 Build 0)  -->
<!DOCTYPE svg PUBLIC "-//W3C//DTD SVG 1.1//EN" "http://www.w3.org/Graphics/SVG/1.1/DTD/svg11.dtd">
<svg version="1.1" id="SvgjsSvg1015" xmlns:svgjs="http://svgjs.com/svgjs"
	 xmlns="http://www.w3.org/2000/svg" xmlns:xlink="http://www.w3.org/1999/xlink" x="0px" y="0px" width="75px" height="74px"
	 viewBox="0 0 75 74" enable-background="new 0 0 75 74" xml:space="preserve">
<path d="M42.819,35.765c0.806-0.801,1.681-1.788,1.929-3.019c0.331-1.637-0.343-1.846-0.343-2.411c0-1.187-0.011-3.132-0.374-4.396
	c-0.02-1.667-0.289-2.393-0.854-3.017c-0.531-0.584-1.84-0.446-2.521-0.832c-1.057-0.597-1.926-0.823-3.033-0.853
	c-0.031-0.007-0.064-0.003-0.096-0.002c-0.055-0.001-0.107-0.005-0.163-0.005c-2.696,0.114-5.567,1.847-6.555,4.632
	c-0.366,1.033-0.226,3.286-0.226,4.473c0,0.565-0.674,0.774-0.343,2.411c0.249,1.23,1.123,2.218,1.928,3.019
	c0.569,0.567,0.786,2.138,1.406,2.758c0.135,0.913,0.151,0.653,0.146,1.489c-0.001,0.281,0.007,0.721-0.436,1.152
	c-0.839,0.816-0.338,1.355-1.918,2.047c-2.084,0.91-5.472,2.367-6.252,2.775c-0.781,0.408-2.858,1.521-2.844,2.23
	c0.064,3.289,1.278,4.553,1.278,4.553H37.3h0.399h13.77c0,0,1.262-1.375,1.262-4.553c0-0.709-2.062-1.822-2.844-2.23
	s-4.168-1.865-6.252-2.775c-1.539-0.674-0.979-1.137-1.85-1.979c-0.296-0.284-0.504-0.582-0.507-1.307
	c-0.003-0.843,0.016-0.521,0.146-1.403C42.034,37.9,42.25,36.33,42.819,35.765z"/>
</svg>
