<?xml version="1.0" encoding="utf-8"?>
<!-- Generator: Adobe Illustrator 15.0.0, SVG Export Plug-In . SVG Version: 6.00 Build 0)  -->
<!DOCTYPE svg PUBLIC "-//W3C//DTD SVG 1.1//EN" "http://www.w3.org/Graphics/SVG/1.1/DTD/svg11.dtd">
<svg version="1.1" id="SvgjsSvg1015" xmlns:svgjs="http://svgjs.com/svgjs"
	 xmlns="http://www.w3.org/2000/svg" xmlns:xlink="http://www.w3.org/1999/xlink" x="0px" y="0px" width="75px" height="74px"
	 viewBox="0 0 75 74" enable-background="new 0 0 75 74" xml:space="preserve">
<g>
	<path id="Oval-28" fill="#363636" d="M37.5,57.621c11.389,0,20.621-9.232,20.621-20.621S48.889,16.379,37.5,16.379
		S16.879,25.611,16.879,37S26.111,57.621,37.5,57.621L37.5,57.621z M37.5,55.109C27.5,55.109,19.389,47,19.389,37
		S27.5,18.892,37.5,18.892S55.611,27,55.611,37S47.5,55.109,37.5,55.109L37.5,55.109z"/>
	<path id="Combined-Shape" fill="#363636" d="M32.879,44.232c0.51,0.279,1.18,0.217,1.616-0.221l11.999-12.001
		c0.525-0.525,0.525-1.385-0.002-1.914c-0.514-0.516-1.389-0.533-1.916-0.006L33.521,41.146l-3.263-3.263
		c-0.516-0.513-1.379-0.521-1.909,0.011c-0.515,0.515-0.535,1.383-0.01,1.908l4.172,4.174
		C32.621,44.086,32.742,44.172,32.879,44.232z"/>
</g>
</svg>
