<?xml version="1.0" encoding="utf-8"?>
<!-- Generator: Adobe Illustrator 15.0.0, SVG Export Plug-In . SVG Version: 6.00 Build 0)  -->
<!DOCTYPE svg PUBLIC "-//W3C//DTD SVG 1.1//EN" "http://www.w3.org/Graphics/SVG/1.1/DTD/svg11.dtd">
<svg version="1.1" id="SvgjsSvg1015" xmlns:svgjs="http://svgjs.com/svgjs"
	 xmlns="http://www.w3.org/2000/svg" xmlns:xlink="http://www.w3.org/1999/xlink" x="0px" y="0px" width="75px" height="74px"
	 viewBox="0 0 75 74" enable-background="new 0 0 75 74" xml:space="preserve">
<path id="santander" d="M38.083,19.394c0.01,1.291-0.074,2.641,0.552,3.821c1.658,3.365,4.751,5.848,6.374,9.234
	c0.548,1.149,0.892,2.461,0.513,3.711c3.085,0.638,6.15,1.645,8.725,3.443c1.582,1.13,3.041,2.692,3.323,4.649
	c0.271,1.702-0.547,3.396-1.731,4.62c-1.562,1.613-3.596,2.722-5.698,3.545c-6.06,2.291-12.774,2.646-19.161,1.702
	c-3.934-0.695-7.974-1.826-11.074-4.375c-1.57-1.276-2.801-3.229-2.474-5.283c0.306-1.945,1.819-3.446,3.399-4.555
	c2.554-1.753,5.521-2.845,8.521-3.638c0.197,0.603,0.441,1.196,0.798,1.728c1.92,2.867,4.399,5.353,6.207,8.297
	c0.547,0.831,0.793,1.808,0.79,2.796c1.709-1.314,1.81-3.736,1.205-5.61c-1.292-4.038-5.452-6.474-6.661-10.553
	c-0.636-2.232-0.231-5.079,1.857-6.483c0.02,1.243-0.111,2.549,0.505,3.692c1.684,3.473,5.073,5.829,6.874,9.234
	c0.564,0.98,0.533,2.129,0.533,3.22c1.506-0.827,1.793-2.683,1.798-4.204c-0.111-2.574-1.882-4.652-3.459-6.574
	c-1.718-2.074-3.52-4.33-3.803-7.065C35.797,22.802,36.315,20.543,38.083,19.394z"/>
</svg>
