<?xml version="1.0" encoding="utf-8"?>
<!-- Generator: Adobe Illustrator 15.0.0, SVG Export Plug-In . SVG Version: 6.00 Build 0)  -->
<!DOCTYPE svg PUBLIC "-//W3C//DTD SVG 1.1//EN" "http://www.w3.org/Graphics/SVG/1.1/DTD/svg11.dtd">
<svg version="1.1" id="SvgjsSvg1015" xmlns:svgjs="http://svgjs.com/svgjs"
	 xmlns="http://www.w3.org/2000/svg" xmlns:xlink="http://www.w3.org/1999/xlink" x="0px" y="0px" width="75px" height="74px"
	 viewBox="0 0 75 74" enable-background="new 0 0 75 74" xml:space="preserve">
<path id="Shape" d="M50.531,16.15H24.469c-4.319,0-7.819,3.499-7.819,7.818v26.062c0,4.316,3.5,7.818,7.819,7.818h26.062
	c4.316,0,7.818-3.502,7.818-7.818V23.969C58.35,19.649,54.848,16.15,50.531,16.15L50.531,16.15z M42.893,36.996L39.473,37v12.511
	H34.78V37h-3.126v-4.311l3.126-0.003l-0.006-2.536c0-3.518,0.953-5.661,5.097-5.661h3.448v4.313h-2.154
	c-1.618,0-1.692,0.603-1.692,1.726l-0.007,2.158h3.88L42.893,36.996L42.893,36.996z"/>
</svg>
