<?xml version="1.0" encoding="utf-8"?>
<!-- Generator: Adobe Illustrator 15.0.0, SVG Export Plug-In . SVG Version: 6.00 Build 0)  -->
<!DOCTYPE svg PUBLIC "-//W3C//DTD SVG 1.1//EN" "http://www.w3.org/Graphics/SVG/1.1/DTD/svg11.dtd">
<svg version="1.1" id="SvgjsSvg1015" xmlns:svgjs="http://svgjs.com/svgjs"
	 xmlns="http://www.w3.org/2000/svg" xmlns:xlink="http://www.w3.org/1999/xlink" x="0px" y="0px" width="75px" height="74px"
	 viewBox="0 0 75 74" enable-background="new 0 0 75 74" xml:space="preserve">
<g>
	<path id="Shape" d="M56.496,30.392l-7.057-11.573c-0.311-0.52-0.842-0.833-1.416-0.833H26.851c-0.569,0-1.097,0.307-1.407,0.814
		l-6.843,11.239c-0.311,0.322-0.506,0.771-0.506,1.266v22.939c0,0.979,0.754,1.771,1.683,1.771h35.443
		c0.93,0,1.684-0.791,1.684-1.771V31.536C56.904,31.097,56.748,30.7,56.496,30.392z M52.064,29.745l-12.514-0.084v-7.974h7.586
		L52.064,29.745z M27.718,21.688h8.046v7.95L22.93,29.556L27.718,21.688z M53.434,52.313H21.565V33.13h31.868V52.313z"/>
	<path id="Shape_1_" d="M34.167,48.138c0.463,0.532,1.249,0.532,1.712,0l7.664-8.794c0.443-0.505,0.416-1.302-0.055-1.774
		c-0.471-0.474-1.213-0.448-1.658,0.061l-6.808,7.81l-2.02-2.316c-0.44-0.503-1.181-0.531-1.653-0.061
		c-0.473,0.478-0.499,1.273-0.056,1.777L34.167,48.138z"/>
</g>
</svg>
