<?xml version="1.0" encoding="utf-8"?>
<!-- Generator: Adobe Illustrator 15.0.0, SVG Export Plug-In . SVG Version: 6.00 Build 0)  -->
<!DOCTYPE svg PUBLIC "-//W3C//DTD SVG 1.1//EN" "http://www.w3.org/Graphics/SVG/1.1/DTD/svg11.dtd">
<svg version="1.1" id="SvgjsSvg1025" xmlns:svgjs="http://svgjs.com/svgjs"
	 xmlns="http://www.w3.org/2000/svg" xmlns:xlink="http://www.w3.org/1999/xlink" x="0px" y="0px" width="75px" height="74px"
	 viewBox="0 0 75 74" enable-background="new 0 0 75 74" xml:space="preserve">
<path id="SvgjsPath1034" fill="#3B9BD6" d="M51.215,55.42c-2.199-1.801-5.17-2.961-8.07-4c-3.969-1.631-8.209-3.279-11.29-5.609
	c-3.7-3.08-5.45-6.721-5.65-11.21c0.2-4.21,1.9-7.73,4.839-10.42c3.9-2.71,9.372-4.23,16.141-4c1.84-0.23,3.619-0.11,5.641,0
	c-0.23,0.14-0.092,0.06,0,0c0.029-0.21,0-0.36,0-0.8c-4.361-3.5-9.852-5.61-15.331-5.61c-6.42,0-12.241,2.41-16.94,6.41
	c-4.04,4.78-6.45,10.62-6.45,16.82c0,6.199,2.41,12.039,6.45,16.82c4.7,3.99,10.51,6.41,16.94,6.41
	C42.256,60.23,47.006,58.65,51.215,55.42C51.105,55.609,51.154,55.52,51.215,55.42C51.154,55.311,51.105,55.199,51.215,55.42
	 M60.895,35.4C60.785,35.35,60.734,35.27,60.895,35.4c-5.189-4.04-9.209-5.61-13.709-5.61c-2.98,0-4.98,0.49-6.461,1.601
	c-1,0.69-1.609,1.85-1.609,3.21c0,3.82,4.99,5.57,10.49,7.201c3.27,1.43,6.35,2.5,8.869,4.01c0.361-0.01,0.41,0,0.811,0
	c-0.301,0-0.26-0.01,0,0c-0.131-0.051-0.061-0.121,0,0c1.061-2.801,1.609-5.521,1.609-8.01C60.885,36.84,60.855,36.14,60.895,35.4"
	/>
</svg>
