<?xml version="1.0" encoding="utf-8"?>
<!-- Generator: Adobe Illustrator 15.0.0, SVG Export Plug-In . SVG Version: 6.00 Build 0)  -->
<!DOCTYPE svg PUBLIC "-//W3C//DTD SVG 1.1//EN" "http://www.w3.org/Graphics/SVG/1.1/DTD/svg11.dtd">
<svg version="1.1" id="SvgjsSvg1015" xmlns:svgjs="http://svgjs.com/svgjs"
	 xmlns="http://www.w3.org/2000/svg" xmlns:xlink="http://www.w3.org/1999/xlink" x="0px" y="0px" width="75px" height="74px"
	 viewBox="0 0 75 74" enable-background="new 0 0 75 74" xml:space="preserve">
<path d="M54.369,30.5c-0.176-1.516-1.553-2.741-3.076-2.741h-2.82l-1.555-8.869c-0.424-2.425-2.469-4.39-4.568-4.39h-8.871
	c-2.1,0-4.145,1.563-4.568,3.988l-1.571,9.271h-3.632c-1.521,0-2.9,1.227-3.076,2.741L17.58,56.76
	c-0.176,1.516,1.191,2.74,3.055,2.74h33.73c1.859,0,3.23-1.227,3.055-2.74L54.369,30.5z M31.699,18.955
	c0.17-0.975,0.966-1.643,1.779-1.643h8.871c0.635,0,1.582,0.909,1.783,2.06l1.469,8.387H30.208L31.699,18.955z"/>
</svg>
